<?xml version="1.0" encoding="UTF-8" standalone="no"?>
<!-- Created with Inkscape (http://www.inkscape.org/) -->

<svg
   width="160mm"
   height="45mm"
   viewBox="0 0 160 45"
   version="1.1"
   id="svg1"
   inkscape:version="1.4 (86a8ad7, 2024-10-11)"
   sodipodi:docname="OpenSouth-banner.svg"
   xmlns:inkscape="http://www.inkscape.org/namespaces/inkscape"
   xmlns:sodipodi="http://sodipodi.sourceforge.net/DTD/sodipodi-0.dtd"
   xmlns="http://www.w3.org/2000/svg"
   xmlns:svg="http://www.w3.org/2000/svg">
  <sodipodi:namedview
     id="namedview1"
     pagecolor="#ffffff"
     bordercolor="#666666"
     borderopacity="1.0"
     inkscape:showpageshadow="2"
     inkscape:pageopacity="0.0"
     inkscape:pagecheckerboard="0"
     inkscape:deskcolor="#d1d1d1"
     inkscape:document-units="mm"
     inkscape:zoom="1.4520904"
     inkscape:cx="182.1512"
     inkscape:cy="99.511713"
     inkscape:window-width="1920"
     inkscape:window-height="1017"
     inkscape:window-x="1912"
     inkscape:window-y="-8"
     inkscape:window-maximized="1"
     inkscape:current-layer="layer1" />
  <defs
     id="defs1" />
  <g
     inkscape:label="Layer 1"
     inkscape:groupmode="layer"
     id="layer1"
     transform="translate(-57.822125,-63.766097)">
    <g
       id="g1"
       transform="translate(4.6865268,2.5208532)">
      <path
         d="m 138.37256,91.827685 q -2.7051,0 -4.3053,-1.1049 -1.6002,-1.1176 -1.9685,-3.0353 h -0.4445 l 0.3556,-1.905 q 0.3556,2.0701 1.9685,3.2258 1.6129,1.1557 4.1148,1.1557 2.2352,0 3.4163,-0.9144 1.1811,-0.9271 1.1811,-2.6543 0,-1.143 -0.5334,-1.905 -0.5334,-0.7747 -1.7272,-1.2573 -1.1811,-0.4953 -3.1623,-0.7874 -2.4511,-0.3556 -4.0259,-1.0668 -1.5621,-0.7112 -2.3241,-1.8161 -0.762,-1.1049 -0.762,-2.6289 0,-2.3241 1.5875,-3.6195 1.6002,-1.2954 4.3942,-1.2954 1.7526,0 2.9718,0.508 1.2319,0.4953 1.9431,1.4351 0.7112,0.9398 0.9271,2.2352 h 0.4318 l -0.3683,1.8669 q -0.3302,-2.0574 -1.8415,-3.2131 -1.4986,-1.1684 -3.81,-1.1684 -1.9939,0 -3.1496,0.8382 -1.1557,0.8255 -1.1557,2.3241 0,0.9779 0.5461,1.6891 0.5461,0.6985 1.7526,1.1938 1.2065,0.4826 3.175,0.8382 2.54,0.3937 4.0894,1.1049 1.5494,0.7112 2.2606,1.8415 0.7239,1.1176 0.7239,2.7559 0,2.54 -1.6383,3.9497 -1.6383,1.4097 -4.6228,1.4097 z m -8.2677,-0.254 v -5.7912 h 1.905 v 5.7912 z m 11.938,-13.3096 v -5.7912 h 1.905 v 5.7912 z m 11.97612,13.5509 q -2.1082,0 -3.6957,-0.889 -1.5875,-0.9017 -2.4765,-2.4638 -0.889,-1.5621 -0.889,-3.6068 0,-2.0574 0.889,-3.6449 0.889,-1.6002 2.4765,-2.5019 1.5875,-0.9017 3.6957,-0.9017 2.1082,0 3.6957,0.9017 1.5875,0.9017 2.4765,2.5019 0.889,1.5875 0.889,3.6449 0,2.0447 -0.889,3.6068 -0.889,1.5621 -2.4765,2.4638 -1.5875,0.889 -3.6957,0.889 z m 0,-1.6891 q 1.524,0 2.6797,-0.6604 1.1684,-0.6604 1.8161,-1.8415 0.6604,-1.1938 0.6604,-2.7686 0,-1.5875 -0.6604,-2.794 -0.6477,-1.2065 -1.8161,-1.8796 -1.1557,-0.6858 -2.6797,-0.6858 -1.524,0 -2.6924,0.6858 -1.1557,0.6731 -1.8161,1.8796 -0.6477,1.2065 -0.6477,2.794 0,1.5748 0.6477,2.7686 0.6604,1.1811 1.8161,1.8415 1.1684,0.6604 2.6924,0.6604 z m 20.85343,-10.5029 h -2.6162 v -1.5748 h 4.445 v 11.9507 h 2.6416 v 1.5748 h -4.4704 z m -7.5565,-1.5748 v 8.6233 q 0,1.6637 0.7366,2.6289 0.7493,0.9525 2.3495,0.9525 1.2827,0 2.286,-0.6477 1.016,-0.6604 1.6002,-1.8923 0.5842,-1.2319 0.5842,-2.9591 l 0.4445,2.7051 h -0.5334 q -0.3429,2.1844 -1.7018,3.302 -1.3462,1.1049 -3.3147,1.1049 -2.1844,0 -3.2385,-1.2954 -1.0414,-1.2954 -1.0414,-3.5941 v -7.3533 h -2.4511 v -1.5748 z m 17.57678,9.9441 q 0,1.0668 0.4064,1.6129 0.4064,0.5334 1.2446,0.5334 0.8255,0 1.2446,-0.5461 0.4191,-0.5588 0.4191,-1.6002 v -1.2573 h 1.651 v 1.2446 q 0,1.2192 -0.3683,2.0828 -0.3556,0.8509 -1.0922,1.3081 -0.7366,0.4445 -1.8923,0.4445 -1.1811,0 -1.9431,-0.4572 -0.762,-0.4699 -1.1303,-1.3208 -0.3683,-0.8509 -0.3683,-2.0447 l 0.0127,-8.3693 h -2.413 v -1.5748 h 2.413 v -3.429 h 1.8288 v 3.429 h 4.7752 l -0.0127,1.5748 h -4.7625 z m 11.30023,2.0066 h 2.4003 v 1.5748 h -6.9469 v -1.5748 h 2.7178 v -16.9164 h -2.7178 v -1.5748 h 4.5466 z m 7.7978,0 v -7.112 q 0,-1.651 -0.7493,-2.5908 -0.7366,-0.9398 -2.3241,-0.9398 -1.3335,0 -2.4003,0.6858 -1.0668,0.6731 -1.7018,1.9685 -0.6223,1.2827 -0.6223,3.0988 l -0.4318,-2.7051 h 0.508 q 0.254,-1.4859 0.9525,-2.5146 0.7112,-1.0414 1.8034,-1.5875 1.0922,-0.5461 2.5019,-0.5461 2.2098,0 3.2512,1.27 1.0414,1.27 1.0414,3.5687 v 7.4041 h 2.5908 v 1.5748 h -6.8072 v -1.5748 z"
         id="text1"
         style="font-size:25.4px;line-height:1.25;font-family:'Hepta Slab';-inkscape-font-specification:'Hepta Slab, @wght=400';font-variation-settings:'wght' 400;text-align:center;text-anchor:middle;fill:#bf0d3e;stroke-width:0.264583"
         aria-label="South" />
      <g
         id="group-R5"
         transform="matrix(0.04917291,0,0,0.04917291,56.641968,62.586209)"
         style="fill:#bf0d3e;fill-opacity:1">
        <path
           id="path2"
           d="m 652.121,1569.44 c 0.707,-501.73 403.529,-905.741 896.959,-915.6 505.42,-10.102 934.39,394.15 933.75,916.1 -0.63,511.95 -411.05,906.75 -899.67,914.52 -518.05,8.25 -930.683,-410.51 -931.039,-915.02 z M 1493.57,180 c -17.77,2.441 -35.48,5.512 -53.33,7.23 -307.98,29.668 -577.228,148.008 -805.83,356.09 -234.023,213.02 -382.785,476.15 -433.437,788.32 -74.004,456.07 47.949,857.34 364.238,1195.13 209.883,224.16 470.049,360.95 772.839,410.94 324.5,53.57 631.53,-1.59 918.54,-163.73 5.03,-2.84 10.15,-5.52 17.02,-9.25 0.72,3.73 1.54,5.95 1.54,8.18 -0.17,220.4 3.85,440.91 -1.61,661.19 -8.23,332.06 -263.01,615.47 -591.74,666.91 -385.03,60.25 -746.351,-199.59 -806.163,-583.51 -11.348,-72.83 -7.039,-148.11 -9.699,-222.28 -0.586,-16.28 -0.086,-32.6 -0.086,-49.97 -158.024,0 -314.27,0 -470.739,0 -0.851,2.1 -2.183,3.85 -2.187,5.6 -0.117,106.48 -3.774,213.11 11.558,319.02 29.422,203.25 105.27,387.42 230.946,549.84 175.531,226.87 403.58,373.05 683.94,435.43 50.47,11.23 102.46,15.63 153.73,23.31 4.27,0.64 8.39,2.3 12.57,3.49 59.22,0 118.44,0 177.66,0 24.19,-3.72 48.35,-7.64 72.58,-11.14 506.64,-73.2 903.55,-457.44 993.29,-964.24 11.4,-64.38 17.3,-130.57 17.6,-195.96 1.66,-362.53 0.67,-725.08 1.29,-1087.61 0.02,-14.19 4.36,-30.09 11.58,-42.3 102.41,-173.38 167.74,-359.42 187.01,-560.01 42.52,-442.54 -92.1,-824.239 -405.76,-1138.95 -214.51,-215.242 -475.9,-342.57 -777.17,-386.14 -38.31,-5.539 -77.1,-7.781 -115.64,-11.789 -4.23,-0.442 -8.28,-2.492 -12.41,-3.801 -47.38,0 -94.76,0 -142.13,0"
           style="fill:#bf0d3e;fill-opacity:1;fill-rule:nonzero;stroke:none"
           transform="matrix(0.13333333,0,0,-0.13333333,0,634.92)" />
        <path
           id="path3"
           d="m 1571.85,1175.42 c -214.11,0.06 -389.95,174.35 -389.27,389 0.68,214.83 168.55,390.08 389.97,389.89 221.8,-0.19 388.01,-176.42 389.19,-388.63 1.19,-215.2 -174.65,-390.33 -389.89,-390.26"
           style="fill:#bf0d3e;fill-opacity:1;fill-rule:nonzero;stroke:none"
           transform="matrix(0.13333333,0,0,-0.13333333,0,634.92)" />
      </g>
      <path
         d="m 78.230499,91.865784 v -18.034 h 7.6454 q 1.2446,0 2.286,0.508 1.0414,0.508 1.8034,1.3716 0.7874,0.8636 1.2192,1.9304 0.4318,1.0668 0.4318,2.1844 0,1.524 -0.7112,2.8956 -0.7112,1.3716 -1.9558,2.2352 -1.2446,0.8636 -2.9464,0.8636 h -4.2672 v 6.0452 z m 3.5052,-9.1186 h 4.064 q 0.635,0 1.143,-0.3556 0.508,-0.3556 0.8128,-1.016 0.3048,-0.6858 0.3048,-1.5494 0,-0.9398 -0.3556,-1.6002 -0.3302,-0.6604 -0.889,-0.9906 -0.5334,-0.3302 -1.1684,-0.3302 h -3.9116 z m 24.841181,6.0452 v 3.0734 H 94.054679 v -18.034 h 12.293601 v 3.0734 h -8.788401 v 4.3434 h 7.594601 v 2.8448 h -7.594601 v 4.699 z m 6.24839,-8.509 v 11.5824 h -3.5052 v -18.034 h 2.794 l 9.3218,11.8872 v -11.8618 h 3.5052 v 18.0086 h -2.921 z"
         id="text2"
         style="font-size:25.4px;line-height:1.25;font-family:Raleway;-inkscape-font-specification:'Raleway, Normal';text-align:center;text-anchor:middle;fill:#00205b;stroke-width:0.264583"
         aria-label="PEN" />
      <path
         d="m 78.173396,98.360755 v 0.563033 h -2.582334 v -0.563033 z m 1.595967,-2.874435 v 1.828801 h -0.635 v -1.248834 h -3.268135 v 5.207003 h 1.227667 v 0.57997 h -2.882901 v -0.57997 h 1.024467 V 96.066287 H 74.210994 V 95.48632 Z m 3.534597,6.36694 q -0.173566,0 -0.2667,-0.11007 -0.0889,-0.11007 -0.0889,-0.30903 v -1.35467 l 0.05503,-0.139701 -0.02963,-0.512234 -0.0254,-0.2667 v -0.3429 q 0,-0.347133 -0.143933,-0.567267 -0.1397,-0.220133 -0.4064,-0.325967 -0.2667,-0.105833 -0.643467,-0.105833 -0.563034,0 -0.872067,0.224367 -0.3048,0.220133 -0.4064,0.664633 l -0.584201,-0.122766 q 0.08467,-0.444501 0.3175,-0.736601 0.232834,-0.296333 0.618067,-0.440267 0.389467,-0.148166 0.948267,-0.148166 0.584201,0 0.977901,0.1651 0.397933,0.160867 0.601133,0.4953 0.2032,0.334433 0.2032,0.8636 v 2.544232 h 0.664634 v 0.52494 z m -2.125134,0.0593 q -0.702733,0 -1.0668,-0.30903 -0.364067,-0.31327 -0.364067,-0.91863 0,-0.5588 0.321733,-0.850905 0.321734,-0.296333 1.032934,-0.4445 l 2.027768,-0.4318 v 0.436034 l -1.926168,0.436033 q -0.414867,0.09737 -0.6223,0.287868 -0.2032,0.18627 -0.2032,0.52917 0,0.37253 0.2286,0.5588 0.2286,0.18203 0.668867,0.18203 0.486833,0 0.872067,-0.22437 0.385233,-0.22436 0.605367,-0.6604 0.220133,-0.43603 0.220133,-1.075265 l 0.160867,0.999065 h -0.2159 q -0.105833,0.70697 -0.550334,1.09644 -0.440267,0.38946 -1.189567,0.38946 z m 6.103681,0.0212 q -0.702734,0 -1.223434,-0.29633 -0.516467,-0.29634 -0.804334,-0.81704 -0.283633,-0.52493 -0.283633,-1.206498 0,-0.516467 0.156633,-0.944034 0.156633,-0.4318 0.448734,-0.745067 0.2921,-0.3175 0.694266,-0.486833 0.402167,-0.173567 0.897467,-0.173567 0.478367,0 0.795867,0.156633 0.321734,0.152401 0.499534,0.423334 0.1778,0.2667 0.2286,0.613834 h 0.148167 l -0.122767,0.639233 q -0.05503,-0.381 -0.249767,-0.668867 -0.194733,-0.2921 -0.508,-0.452967 -0.313267,-0.1651 -0.7239,-0.1651 -0.491067,0 -0.863601,0.232834 -0.3683,0.2286 -0.575733,0.635 -0.2032,0.402167 -0.2032,0.935567 0,0.516468 0.207433,0.914398 0.211667,0.3937 0.588434,0.61807 0.381,0.22437 0.897467,0.22437 0.5334,0 0.918634,-0.23284 0.385233,-0.23706 0.563033,-0.635 l 0.563034,0.24977 q -0.2413,0.5461 -0.774701,0.8636 -0.529167,0.3175 -1.274233,0.3175 z m 1.4351,-2.836335 v -1.752601 h 0.6096 v 1.752601 z m 5.198536,-1.227667 h -0.872067 v -0.524934 h 1.481667 v 3.983566 h 0.880534 v 0.52494 h -1.490134 z m -2.518835,-0.524934 v 2.874436 q 0,0.55457 0.245534,0.8763 0.249766,0.3175 0.783167,0.3175 0.427567,0 0.762,-0.2159 0.338667,-0.22013 0.5334,-0.63077 0.194734,-0.41063 0.194734,-0.986365 l 0.148166,0.901705 h -0.1778 q -0.1143,0.72813 -0.567267,1.10066 -0.448733,0.3683 -1.1049,0.3683 -0.728134,0 -1.0795,-0.4318 -0.347134,-0.4318 -0.347134,-1.19803 v -2.451102 h -0.817034 v -0.524934 z m 6.083298,3.983566 h 0.9271 v 0.52494 h -2.463801 v -0.52494 h 0.9271 v -5.6388 h -0.9271 v -0.524933 h 1.536701 z m 2.803264,-0.66886 q 0,0.3556 0.13546,0.53763 0.13547,0.1778 0.41487,0.1778 0.27517,0 0.41487,-0.18203 0.1397,-0.18627 0.1397,-0.5334 v -0.4191 h 0.55033 v 0.41486 q 0,0.4064 -0.12277,0.69427 -0.11853,0.28363 -0.36406,0.43603 -0.24554,0.14817 -0.63077,0.14817 -0.3937,0 -0.6477,-0.1524 -0.254,-0.15663 -0.376767,-0.44027 -0.122766,-0.28363 -0.122766,-0.68156 l 0.0042,-2.789772 H 98.874166 V 97.344754 H 99.6785 v -1.143 h 0.6096 v 1.143 h 1.59173 l -0.004,0.524934 h -1.5875 z m 5.10335,-3.314706 h 2.09973 v 0.524934 h -0.56303 l -1.86267,4.584702 q -0.2286,0.56727 -0.70696,0.87207 -0.47414,0.3048 -1.1811,0.3048 h -0.4445 v -0.53764 h 0.4445 q 0.47413,0 0.8255,-0.19896 0.3556,-0.19474 0.51646,-0.57574 l 0.32174,-0.79163 -0.10584,0.52493 -1.72296,-4.182532 h -0.6223 v -0.524934 h 2.14206 v 0.524934 h -0.85513 l 1.51977,3.797302 -0.55457,-0.49107 h 0.5842 l -0.3175,0.28787 1.4097,-3.594102 h -0.9271 z m 4.93562,-1.278467 V 95.48632 h 2.71357 v 0.579967 h -1.05834 v 5.207003 h 3.17924 v 0.57997 h -4.83447 v -0.57997 h 1.02446 v -5.207003 z m 5.21547,3.661835 v 2.125138 h -0.635 v -2.125138 z m 2.95063,2.205568 q -0.6985,0 -1.21073,-0.29633 -0.51223,-0.29634 -0.79163,-0.81704 -0.2794,-0.52493 -0.2794,-1.206498 0,-0.690034 0.2794,-1.2192 0.28363,-0.529167 0.7874,-0.829734 0.508,-0.300567 1.1811,-0.300567 0.67733,0 1.17263,0.296334 0.4953,0.296333 0.762,0.821267 0.2667,0.524933 0.2667,1.210733 0,0.08043 -0.004,0.127 0,0.04657 -0.008,0.08043 h -0.60113 q 0.004,-0.0508 0.004,-0.110067 0.004,-0.0635 0.004,-0.143933 0,-0.503767 -0.19473,-0.893234 -0.1905,-0.3937 -0.5461,-0.618067 -0.3556,-0.224367 -0.85513,-0.224367 -0.48684,0 -0.85514,0.232834 -0.3683,0.2286 -0.5715,0.635 -0.2032,0.402167 -0.2032,0.935567 0,0.516468 0.19897,0.914398 0.2032,0.3937 0.57573,0.61807 0.37254,0.22437 0.88477,0.22437 0.5334,0 0.92287,-0.24977 0.3937,-0.254 0.5842,-0.69003 l 0.57573,0.2159 q -0.24977,0.5969 -0.8001,0.94403 -0.5461,0.3429 -1.27847,0.3429 z m -1.89653,-2.133601 v -0.4699 h 3.86927 l 0.1778,0.4699 z m 8.56827,2.053171 q -0.17357,0 -0.2667,-0.11007 -0.0889,-0.11007 -0.0889,-0.30903 v -1.35467 l 0.055,-0.139701 -0.0296,-0.512234 -0.0254,-0.2667 v -0.3429 q 0,-0.347133 -0.14394,-0.567267 -0.1397,-0.220133 -0.4064,-0.325967 -0.2667,-0.105833 -0.64347,-0.105833 -0.56303,0 -0.87206,0.224367 -0.3048,0.220133 -0.4064,0.664633 l -0.5842,-0.122766 q 0.0847,-0.444501 0.3175,-0.736601 0.23283,-0.296333 0.61806,-0.440267 0.38947,-0.148166 0.94827,-0.148166 0.5842,0 0.9779,0.1651 0.39794,0.160867 0.60114,0.4953 0.2032,0.334433 0.2032,0.8636 v 2.544232 h 0.66463 v 0.52494 z m -2.12514,0.0593 q -0.70273,0 -1.0668,-0.30903 -0.36407,-0.31327 -0.36407,-0.91863 0,-0.5588 0.32174,-0.850905 0.32173,-0.296333 1.03293,-0.4445 l 2.02777,-0.4318 v 0.436034 l -1.92617,0.436033 q -0.41487,0.09737 -0.6223,0.287868 -0.2032,0.18627 -0.2032,0.52917 0,0.37253 0.2286,0.5588 0.2286,0.18203 0.66887,0.18203 0.48683,0 0.87207,-0.22437 0.38523,-0.22436 0.60536,-0.6604 0.22014,-0.43603 0.22014,-1.075265 l 0.16086,0.999065 h -0.2159 q -0.10583,0.70697 -0.55033,1.09644 -0.44027,0.38946 -1.18957,0.38946 z m 5.27898,-0.5842 h 0.88053 v 0.52494 h -2.41723 v -0.52494 h 0.9271 v -3.458632 h -0.9271 v -0.524934 h 1.5367 z m 1.73143,-3.335865 q -0.0762,-0.02117 -0.1651,-0.03387 -0.0847,-0.0127 -0.18626,-0.0127 -0.62654,0 -1.00331,0.4699 -0.37676,0.465667 -0.37676,1.295401 l -0.14394,-0.986367 h 0.17357 q 0.0593,-0.448734 0.24553,-0.770467 0.18627,-0.325967 0.4826,-0.499534 0.30057,-0.1778 0.70274,-0.1778 0.0762,0 0.13547,0.0085 0.0635,0.0042 0.13546,0.01693 z m 2.1209,3.335865 h 0.80433 v 0.52494 h -2.34103 v -0.52494 h 0.9271 v -3.458632 h -0.9271 v -0.524934 h 1.5367 z m 2.59927,0 v -2.357965 q 0,-0.554567 -0.24977,-0.872067 -0.24976,-0.3175 -0.7874,-0.3175 -0.43603,0 -0.79163,0.2159 -0.3556,0.2159 -0.56304,0.626534 -0.20743,0.410633 -0.20743,0.994833 l -0.1397,-0.9017 h 0.16933 q 0.0804,-0.461434 0.30904,-0.783167 0.2286,-0.325967 0.5842,-0.4953 0.35983,-0.173567 0.8255,-0.173567 0.7366,0 1.09643,0.427567 0.36407,0.423333 0.36407,1.198034 v 2.438398 h 0.86783 v 0.52494 h -2.26907 v -0.52494 z m 3.66184,0 h 0.86783 v 0.52494 h -2.39183 v -0.52494 h 0.9144 v -3.458632 h -0.9144 v -0.524934 h 1.524 z m -0.7239,-5.884333 h 0.77893 v 0.808567 h -0.77893 z m 3.7719,5.884333 h 0.80434 v 0.52494 h -2.34104 v -0.52494 h 0.9271 v -3.458632 h -0.9271 v -0.524934 h 1.5367 z m 2.59927,0 v -2.357965 q 0,-0.554567 -0.24977,-0.872067 -0.24976,-0.3175 -0.7874,-0.3175 -0.43603,0 -0.79163,0.2159 -0.3556,0.2159 -0.56303,0.626534 -0.20744,0.410633 -0.20744,0.994833 l -0.1397,-0.9017 h 0.16934 q 0.0804,-0.461434 0.30903,-0.783167 0.2286,-0.325967 0.5842,-0.4953 0.35983,-0.173567 0.8255,-0.173567 0.7366,0 1.09643,0.427567 0.36407,0.423333 0.36407,1.198034 v 2.438398 h 0.86784 v 0.52494 h -2.26907 v -0.52494 z m 4.27991,2.39607 q -0.59267,0 -1.07527,-0.1143 -0.47837,-0.11007 -0.762,-0.35137 -0.28363,-0.2413 -0.28363,-0.63923 0,-0.39793 0.28363,-0.60537 0.28787,-0.2032 0.74083,-0.2667 v -0.072 l 0.75354,0.072 q -0.4699,0 -0.7366,0.11007 -0.2667,0.1143 -0.37677,0.28787 -0.11007,0.1778 -0.11007,0.36406 0,0.28787 0.21167,0.44874 0.21167,0.16086 0.56727,0.2286 0.35983,0.0677 0.80433,0.0677 0.89323,0 1.30387,-0.2413 0.41486,-0.23707 0.41486,-0.66463 0,-0.60114 -0.77893,-0.60114 h -1.7272 q -0.508,0 -0.8001,-0.18203 -0.28787,-0.18627 -0.28787,-0.5334 0,-0.3302 0.26247,-0.50377 0.26247,-0.1778 0.7493,-0.2159 v -0.127 l 0.77047,0.22014 h -0.46144 q -0.36406,0 -0.55456,0.1016 -0.1905,0.0974 -0.1905,0.30056 0,0.1905 0.17356,0.27517 0.1778,0.0804 0.5334,0.0804 h 1.51554 q 0.43603,0 0.74083,0.14394 0.30903,0.1397 0.46567,0.40216 0.16086,0.26247 0.16086,0.62654 0,0.38946 -0.22013,0.70273 -0.22013,0.3175 -0.72813,0.49953 -0.50377,0.18627 -1.3589,0.18627 z m -0.0762,-3.31893 q -0.53764,0 -0.95674,-0.19474 -0.4191,-0.19473 -0.6604,-0.546098 -0.2413,-0.351367 -0.2413,-0.8255 0,-0.474134 0.23707,-0.825501 0.2413,-0.3556 0.65617,-0.550333 0.4191,-0.198967 0.9652,-0.198967 0.55456,0 0.9779,0.207433 0.42756,0.207434 0.65193,0.575734 0.11007,0.169333 0.16087,0.3683 0.055,0.194734 0.055,0.423334 0,0.474133 -0.23707,0.8255 -0.23706,0.351368 -0.65616,0.546098 -0.41487,0.19474 -0.9525,0.19474 z m 0,-0.499538 q 0.35983,0 0.63923,-0.131233 0.28363,-0.131234 0.4445,-0.372534 0.1651,-0.2413 0.1651,-0.563033 0,-0.321734 -0.1651,-0.563034 -0.16087,-0.245533 -0.4445,-0.376767 -0.2794,-0.135466 -0.63923,-0.135466 -0.3683,0 -0.65194,0.135466 -0.28363,0.131234 -0.44873,0.376767 -0.16087,0.2413 -0.16087,0.563034 0,0.321733 0.16087,0.563033 0.1651,0.2413 0.44873,0.372534 0.28787,0.131233 0.65194,0.131233 z m 1.84573,-1.0668 -0.21167,-0.495301 -0.18626,-0.3048 0.16933,-0.06773 q -0.0127,-0.04233 -0.0212,-0.08467 -0.004,-0.04657 -0.004,-0.09737 0,-0.1778 0.0847,-0.321734 0.0847,-0.143933 0.24553,-0.2286 0.16087,-0.08467 0.3937,-0.08467 0.0593,0 0.10583,0.0042 0.0508,0.0042 0.0974,0.01693 v 0.588434 q -0.0804,-0.0127 -0.14817,-0.01693 -0.0677,-0.0085 -0.13546,-0.0085 -0.1778,0 -0.28787,0.0508 -0.10583,0.0508 -0.1524,0.131233 -0.0466,0.0762 -0.0466,0.169333 0,0.0889 0.0254,0.194734 0.0254,0.1016 0.0466,0.237067 0.0254,0.135466 0.0254,0.3175 z m 7.09508,3.103038 q -0.69851,0 -1.28271,-0.2413 -0.5842,-0.2413 -1.01176,-0.68157 -0.42757,-0.44027 -0.66464,-1.041401 -0.23283,-0.605367 -0.23283,-1.325034 0,-0.715434 0.2286,-1.312334 0.2286,-0.5969 0.65193,-1.0287 0.42757,-0.4318 1.01177,-0.668867 0.5842,-0.2413 1.28694,-0.2413 0.69003,0 1.1938,0.2286 0.50376,0.2286 0.8128,0.651933 0.31326,0.423334 0.42756,1.011767 h 0.2032 l -0.17356,0.690034 q -0.19474,-0.922867 -0.84667,-1.439334 -0.65193,-0.5207 -1.6002,-0.5207 -0.75354,0 -1.3208,0.334433 -0.56727,0.330201 -0.88477,0.922867 -0.3175,0.592667 -0.3175,1.371601 0,0.588434 0.18627,1.0795 0.18626,0.491065 0.5207,0.846665 0.33443,0.3556 0.79586,0.55034 0.46144,0.1905 1.01601,0.1905 0.62653,0 1.13453,-0.24554 0.508,-0.24553 0.84243,-0.69426 0.33867,-0.452971 0.46144,-1.054105 l 0.65193,0.135467 q -0.1524,0.749298 -0.57997,1.308098 -0.42756,0.5588 -1.07103,0.86784 -0.63923,0.3048 -1.43933,0.3048 z m 2.4511,-3.958172 V 95.48632 h 0.63076 v 2.497668 z m 3.80576,3.949702 q -0.70273,0 -1.2319,-0.29633 -0.52917,-0.30057 -0.8255,-0.82127 -0.29633,-0.5207 -0.29633,-1.202268 0,-0.6858 0.29633,-1.214967 0.29633,-0.5334 0.8255,-0.833967 0.52917,-0.300567 1.2319,-0.300567 0.70273,0 1.2319,0.300567 0.52917,0.300567 0.8255,0.833967 0.29633,0.529167 0.29633,1.214967 0,0.681568 -0.29633,1.202268 -0.29633,0.5207 -0.8255,0.82127 -0.52917,0.29633 -1.2319,0.29633 z m 0,-0.56303 q 0.508,0 0.89323,-0.22014 0.38947,-0.22013 0.60537,-0.61383 0.22013,-0.39793 0.22013,-0.922868 0,-0.529167 -0.22013,-0.931334 -0.2159,-0.402167 -0.60537,-0.626533 -0.38523,-0.2286 -0.89323,-0.2286 -0.508,0 -0.89747,0.2286 -0.38523,0.224366 -0.60536,0.626533 -0.2159,0.402167 -0.2159,0.931334 0,0.524938 0.2159,0.922868 0.22013,0.3937 0.60536,0.61383 0.38947,0.22014 0.89747,0.22014 z m 9.46574,0.4826 v -0.52494 h 0.79587 v -2.366432 q 0,-0.554566 -0.24553,-0.867833 -0.24554,-0.313267 -0.76624,-0.313267 -0.4191,0 -0.74507,0.220133 -0.32596,0.220134 -0.51223,0.630767 -0.18627,0.410634 -0.18627,0.986367 l -0.14816,-0.905933 h 0.17356 q 0.10584,-0.736601 0.5461,-1.100667 0.4445,-0.364067 1.07951,-0.364067 0.71543,0 1.06256,0.423333 0.35137,0.423334 0.35137,1.193801 v 2.463798 h 0.8636 v 0.52494 z m -6.23993,0 v -0.52494 h 0.9017 v -3.458632 h -0.9017 v -0.524934 h 1.5113 v 3.983566 h 0.8001 v 0.52494 z m 3.175,0 v -0.52494 h 0.79586 v -2.366432 q 0,-0.554566 -0.24553,-0.867833 -0.24553,-0.313267 -0.76623,-0.313267 -0.4191,0 -0.74507,0.220133 -0.32597,0.220134 -0.51647,0.630767 -0.18626,0.410634 -0.18626,0.986367 l -0.14394,-0.905933 h 0.17357 q 0.1016,-0.736601 0.5461,-1.100667 0.4445,-0.364067 1.0795,-0.364067 0.71543,0 1.06257,0.423333 0.35136,0.423334 0.35136,1.193801 v 2.463798 h 0.8636 v 0.52494 z m 12.17507,0 v -0.52494 h 0.79587 v -2.366432 q 0,-0.554566 -0.24554,-0.867833 -0.24553,-0.313267 -0.76623,-0.313267 -0.4191,0 -0.74507,0.220133 -0.32596,0.220134 -0.51223,0.630767 -0.18627,0.410634 -0.18627,0.986367 l -0.14816,-0.905933 h 0.17356 q 0.10584,-0.736601 0.5461,-1.100667 0.4445,-0.364067 1.0795,-0.364067 0.71544,0 1.06257,0.423333 0.35137,0.423334 0.35137,1.193801 v 2.463798 h 0.8636 v 0.52494 z m -6.23994,0 v -0.52494 h 0.9017 v -3.458632 h -0.9017 v -0.524934 h 1.5113 v 3.983566 h 0.8001 v 0.52494 z m 3.17501,0 v -0.52494 h 0.79586 v -2.366432 q 0,-0.554566 -0.24553,-0.867833 -0.24553,-0.313267 -0.76623,-0.313267 -0.41911,0 -0.74507,0.220133 -0.32597,0.220134 -0.51647,0.630767 -0.18627,0.410634 -0.18627,0.986367 l -0.14393,-0.905933 h 0.17357 q 0.1016,-0.736601 0.5461,-1.100667 0.4445,-0.364067 1.0795,-0.364067 0.71543,0 1.06257,0.423333 0.35136,0.423334 0.35136,1.193801 v 2.463798 h 0.8636 v 0.52494 z m 9.60921,-3.983572 h -0.87206 v -0.524934 h 1.48166 v 3.983566 h 0.88054 v 0.52494 h -1.49014 z m -2.51883,-0.524934 v 2.874436 q 0,0.55457 0.24553,0.8763 0.24977,0.3175 0.78317,0.3175 0.42757,0 0.762,-0.2159 0.33867,-0.22013 0.5334,-0.63077 0.19473,-0.41063 0.19473,-0.986365 l 0.14817,0.901705 h -0.1778 q -0.1143,0.72813 -0.56727,1.10066 -0.44873,0.3683 -1.1049,0.3683 -0.72813,0 -1.0795,-0.4318 -0.34713,-0.4318 -0.34713,-1.19803 v -2.451102 h -0.81704 v -0.524934 z m 6.18913,3.983566 h 0.80433 v 0.52494 h -2.34103 v -0.52494 h 0.9271 v -3.458632 h -0.9271 v -0.524934 h 1.5367 z m 2.59927,0 v -2.357965 q 0,-0.554567 -0.24977,-0.872067 -0.24977,-0.3175 -0.7874,-0.3175 -0.43603,0 -0.79163,0.2159 -0.3556,0.2159 -0.56304,0.626534 -0.20743,0.410633 -0.20743,0.994833 l -0.1397,-0.9017 h 0.16933 q 0.0804,-0.461434 0.30904,-0.783167 0.2286,-0.325967 0.5842,-0.4953 0.35983,-0.173567 0.8255,-0.173567 0.7366,0 1.09643,0.427567 0.36407,0.423333 0.36407,1.198034 v 2.438398 h 0.86783 v 0.52494 h -2.26907 v -0.52494 z m 3.66184,0 h 0.86783 v 0.52494 h -2.39183 v -0.52494 h 0.9144 v -3.458632 h -0.9144 v -0.524934 h 1.524 z m -0.7239,-5.884333 h 0.77893 v 0.808567 h -0.77893 z m 3.4417,5.215473 q 0,0.3556 0.13546,0.53763 0.13547,0.1778 0.41487,0.1778 0.27517,0 0.41487,-0.18203 0.1397,-0.18627 0.1397,-0.5334 v -0.4191 h 0.55033 v 0.41486 q 0,0.4064 -0.12277,0.69427 -0.11853,0.28363 -0.36406,0.43603 -0.24554,0.14817 -0.63077,0.14817 -0.3937,0 -0.6477,-0.1524 -0.254,-0.15663 -0.37677,-0.44027 -0.12276,-0.28363 -0.12276,-0.68156 l 0.004,-2.789772 h -0.80434 v -0.524934 h 0.80434 v -1.143 h 0.6096 v 1.143 h 1.59173 l -0.004,0.524934 h -1.5875 z m 5.10336,-3.314706 h 2.09973 v 0.524934 h -0.56303 l -1.86267,4.584702 q -0.2286,0.56727 -0.70697,0.87207 -0.47413,0.3048 -1.1811,0.3048 h -0.4445 v -0.53764 h 0.4445 q 0.47414,0 0.8255,-0.19896 0.3556,-0.19474 0.51647,-0.57574 l 0.32173,-0.79163 -0.10583,0.52493 -1.72297,-4.182532 h -0.6223 v -0.524934 h 2.14207 v 0.524934 h -0.85513 l 1.51976,3.797302 -0.55456,-0.49107 h 0.5842 l -0.3175,0.28787 1.4097,-3.594102 h -0.9271 z"
         id="text3"
         style="font-size:8.46667px;line-height:1.25;font-family:'Hepta Slab';-inkscape-font-specification:'Hepta Slab, @wght=400';font-variation-settings:'wght' 400;text-align:center;text-anchor:middle;fill:#00205b;stroke-width:0.264583"
         aria-label="Faculty Learning Community" />
    </g>
  </g>
</svg>
