<?xml version="1.0" encoding="UTF-8" standalone="no"?>
<!-- Created with Inkscape (http://www.inkscape.org/) -->

<svg
   width="72mm"
   height="54mm"
   viewBox="0 0 72 54"
   version="1.1"
   id="svg1"
   inkscape:version="1.4 (86a8ad7, 2024-10-11)"
   sodipodi:docname="OpenSouth.svg"
   inkscape:export-filename="OpenSouth.png"
   inkscape:export-xdpi="96"
   inkscape:export-ydpi="96"
   xmlns:inkscape="http://www.inkscape.org/namespaces/inkscape"
   xmlns:sodipodi="http://sodipodi.sourceforge.net/DTD/sodipodi-0.dtd"
   xmlns="http://www.w3.org/2000/svg"
   xmlns:svg="http://www.w3.org/2000/svg">
  <sodipodi:namedview
     id="namedview1"
     pagecolor="#ffffff"
     bordercolor="#666666"
     borderopacity="1.0"
     inkscape:showpageshadow="2"
     inkscape:pageopacity="0.0"
     inkscape:pagecheckerboard="0"
     inkscape:deskcolor="#d1d1d1"
     inkscape:document-units="mm"
     inkscape:zoom="2.0535659"
     inkscape:cx="118.57423"
     inkscape:cy="148.76562"
     inkscape:window-width="1920"
     inkscape:window-height="1017"
     inkscape:window-x="-8"
     inkscape:window-y="-8"
     inkscape:window-maximized="1"
     inkscape:current-layer="layer1" />
  <defs
     id="defs1" />
  <g
     inkscape:label="Layer 1"
     inkscape:groupmode="layer"
     id="layer1"
     transform="translate(-55.381601,-61.834824)">
    <g
       id="g4"
       transform="translate(2.440524,1.9312726)">
      <path
         d="m 73.863187,105.17802 q -1.878543,0 -2.989793,-0.76729 -1.111251,-0.77611 -1.367015,-2.10785 h -0.308681 l 0.246945,-1.32292 q 0.246944,1.43757 1.367015,2.24014 1.12007,0.80257 2.857502,0.80257 1.552223,0 2.372432,-0.635 0.820209,-0.64382 0.820209,-1.84326 0,-0.79375 -0.370417,-1.32292 -0.370417,-0.537986 -1.199446,-0.873125 -0.820209,-0.343959 -2.196043,-0.546806 -1.702154,-0.246945 -2.795766,-0.740834 -1.084792,-0.493889 -1.613959,-1.261181 -0.529167,-0.767292 -0.529167,-1.825626 0,-1.61396 1.102431,-2.513544 1.111251,-0.899584 3.05153,-0.899584 1.217084,0 2.063752,0.352778 0.855486,0.343959 1.349375,0.996598 0.49389,0.65264 0.64382,1.552223 h 0.299862 l -0.255764,1.29646 q -0.229306,-1.428751 -1.278821,-2.231321 -1.040695,-0.81139 -2.645835,-0.81139 -1.384654,0 -2.187224,0.582084 -0.80257,0.573264 -0.80257,1.613959 0,0.679098 0.379237,1.172987 0.379236,0.48507 1.217084,0.829029 0.837848,0.335139 2.204863,0.582083 1.76389,0.273403 2.839863,0.767293 1.075973,0.493889 1.569862,1.27882 0.502708,0.776107 0.502708,1.913817 0,1.76389 -1.137709,2.74285 -1.137709,0.97896 -3.21028,0.97896 z m -5.741462,-0.17639 v -4.02167 h 1.322918 v 4.02167 z m 8.290284,-9.242781 v -4.02167 h 1.322917 v 4.02167 z m 8.316757,9.410351 q -1.464028,0 -2.56646,-0.61736 -1.102431,-0.62618 -1.719792,-1.71097 -0.617362,-1.0848 -0.617362,-2.50473 0,-1.428748 0.617362,-2.531179 0.617361,-1.111251 1.719792,-1.737432 1.102432,-0.626181 2.56646,-0.626181 1.464029,0 2.56646,0.626181 1.102432,0.626181 1.719793,1.737432 0.617362,1.102431 0.617362,2.531179 0,1.41993 -0.617362,2.50473 -0.617361,1.08479 -1.719793,1.71097 -1.102431,0.61736 -2.56646,0.61736 z m 0,-1.17298 q 1.058334,0 1.860904,-0.45862 0.81139,-0.45861 1.261182,-1.27882 0.458611,-0.82902 0.458611,-1.92264 0,-1.102428 -0.458611,-1.940276 -0.449792,-0.837847 -1.261182,-1.305278 -0.80257,-0.476251 -1.860904,-0.476251 -1.058334,0 -1.869723,0.476251 -0.80257,0.467431 -1.261181,1.305278 -0.449792,0.837848 -0.449792,1.940276 0,1.09362 0.449792,1.92264 0.458611,0.82021 1.261181,1.27882 0.811389,0.45862 1.869723,0.45862 z M 99.21032,96.70253 h -1.816807 v -1.093612 h 3.086807 v 8.299102 h 1.83445 v 1.09361 h -3.10445 z m -5.247573,-1.093612 v 5.988402 q 0,1.15535 0.511528,1.82563 0.520348,0.66146 1.631598,0.66146 0.890765,0 1.587502,-0.44979 0.705556,-0.45861 1.11125,-1.3141 0.405695,-0.85549 0.405695,-2.05493 l 0.308681,1.87854 h -0.370417 q -0.238125,1.51695 -1.181806,2.29306 -0.934862,0.76729 -2.301877,0.76729 -1.516946,0 -2.24896,-0.89958 -0.723195,-0.89959 -0.723195,-2.49591 v -5.10646 h -1.702154 v -1.093612 z m 12.206113,6.905632 q 0,0.74083 0.28222,1.12007 0.28222,0.37041 0.8643,0.37041 0.57327,0 0.86431,-0.37923 0.29104,-0.38806 0.29104,-1.11125 v -0.87313 h 1.14653 v 0.86431 q 0,0.84667 -0.25576,1.44639 -0.24695,0.5909 -0.75848,0.9084 -0.51152,0.30868 -1.31409,0.30868 -0.82021,0 -1.34938,-0.3175 -0.52917,-0.32632 -0.78493,-0.91722 -0.25577,-0.5909 -0.25577,-1.41993 l 0.009,-5.81202 h -1.67569 v -1.093612 h 1.67569 v -2.381252 h 1.27 v 2.381252 h 3.31612 l -0.009,1.093612 h -3.3073 z m 7.84738,1.39347 h 1.66688 v 1.09361 h -4.82424 v -1.09361 h 1.88736 V 92.160513 h -1.88736 v -1.093612 h 3.15736 z m 5.41514,0 v -4.938891 q 0,-1.146529 -0.52034,-1.799168 -0.51153,-0.65264 -1.61396,-0.65264 -0.92604,0 -1.66688,0.476251 -0.74083,0.467431 -1.1818,1.367015 -0.43216,0.890764 -0.43216,2.151943 l -0.29986,-1.87854 h 0.35278 q 0.17639,-1.031876 0.66146,-1.746252 0.49389,-0.723195 1.25236,-1.102431 0.75847,-0.379236 1.73743,-0.379236 1.53459,0 2.25778,0.881945 0.7232,0.881945 0.7232,2.478265 v 5.141739 h 1.79916 v 1.09361 h -4.72722 v -1.09361 z"
         id="text1"
         style="font-size:17.6389px;line-height:1.25;font-family:'Hepta Slab';-inkscape-font-specification:'Hepta Slab, @wght=400';font-variation-settings:'wght' 400;text-align:center;text-anchor:middle;fill:#bf0d3e;stroke-width:0.264583"
         aria-label="South" />
      <g
         id="g3">
        <g
           id="group-R5"
           transform="matrix(0.04917291,0,0,0.04917291,54.201444,60.654936)"
           style="fill:#bf0d3e;fill-opacity:1">
          <path
             id="path2"
             d="m 652.121,1569.44 c 0.707,-501.73 403.529,-905.741 896.959,-915.6 505.42,-10.102 934.39,394.15 933.75,916.1 -0.63,511.95 -411.05,906.75 -899.67,914.52 -518.05,8.25 -930.683,-410.51 -931.039,-915.02 z M 1493.57,180 c -17.77,2.441 -35.48,5.512 -53.33,7.23 -307.98,29.668 -577.228,148.008 -805.83,356.09 -234.023,213.02 -382.785,476.15 -433.437,788.32 -74.004,456.07 47.949,857.34 364.238,1195.13 209.883,224.16 470.049,360.95 772.839,410.94 324.5,53.57 631.53,-1.59 918.54,-163.73 5.03,-2.84 10.15,-5.52 17.02,-9.25 0.72,3.73 1.54,5.95 1.54,8.18 -0.17,220.4 3.85,440.91 -1.61,661.19 -8.23,332.06 -263.01,615.47 -591.74,666.91 -385.03,60.25 -746.351,-199.59 -806.163,-583.51 -11.348,-72.83 -7.039,-148.11 -9.699,-222.28 -0.586,-16.28 -0.086,-32.6 -0.086,-49.97 -158.024,0 -314.27,0 -470.739,0 -0.851,2.1 -2.183,3.85 -2.187,5.6 -0.117,106.48 -3.774,213.11 11.558,319.02 29.422,203.25 105.27,387.42 230.946,549.84 175.531,226.87 403.58,373.05 683.94,435.43 50.47,11.23 102.46,15.63 153.73,23.31 4.27,0.64 8.39,2.3 12.57,3.49 59.22,0 118.44,0 177.66,0 24.19,-3.72 48.35,-7.64 72.58,-11.14 506.64,-73.2 903.55,-457.44 993.29,-964.24 11.4,-64.38 17.3,-130.57 17.6,-195.96 1.66,-362.53 0.67,-725.08 1.29,-1087.61 0.02,-14.19 4.36,-30.09 11.58,-42.3 102.41,-173.38 167.74,-359.42 187.01,-560.01 42.52,-442.54 -92.1,-824.239 -405.76,-1138.95 -214.51,-215.242 -475.9,-342.57 -777.17,-386.14 -38.31,-5.539 -77.1,-7.781 -115.64,-11.789 -4.23,-0.442 -8.28,-2.492 -12.41,-3.801 -47.38,0 -94.76,0 -142.13,0"
             style="fill:#bf0d3e;fill-opacity:1;fill-rule:nonzero;stroke:none"
             transform="matrix(0.13333333,0,0,-0.13333333,0,634.92)" />
          <path
             id="path3"
             d="m 1571.85,1175.42 c -214.11,0.06 -389.95,174.35 -389.27,389 0.68,214.83 168.55,390.08 389.97,389.89 221.8,-0.19 388.01,-176.42 389.19,-388.63 1.19,-215.2 -174.65,-390.33 -389.89,-390.26"
             style="fill:#bf0d3e;fill-opacity:1;fill-rule:nonzero;stroke:none"
             transform="matrix(0.13333333,0,0,-0.13333333,0,634.92)" />
        </g>
        <path
           d="M 75.789978,89.934509 V 71.90051 h 7.6454 q 1.2446,0 2.286,0.508 1.0414,0.508 1.8034,1.3716 0.7874,0.8636 1.2192,1.930399 0.4318,1.0668 0.4318,2.1844 0,1.524 -0.7112,2.8956 -0.7112,1.3716 -1.9558,2.2352 -1.2446,0.8636 -2.9464,0.8636 h -4.2672 v 6.0452 z m 3.5052,-9.1186 h 4.064 q 0.635,0 1.143,-0.3556 0.508,-0.3556 0.8128,-1.016 0.3048,-0.6858 0.3048,-1.5494 0,-0.9398 -0.3556,-1.6002 -0.3302,-0.6604 -0.889,-0.9906 -0.5334,-0.330199 -1.1684,-0.330199 h -3.9116 z m 24.841182,6.0452 v 3.0734 H 91.614158 V 71.90051 h 12.293602 v 3.0734 h -8.788403 v 4.343399 h 7.594603 v 2.8448 h -7.594603 v 4.699 z m 6.24839,-8.509 v 11.5824 h -3.5052 V 71.90051 h 2.794 l 9.3218,11.887199 V 71.92591 h 3.5052 v 18.008599 h -2.921 z"
           id="text2"
           style="font-size:25.4px;line-height:1.25;font-family:Raleway;-inkscape-font-specification:'Raleway, Normal';text-align:center;text-anchor:middle;fill:#00205b;stroke-width:0.264583"
           aria-label="PEN" />
      </g>
      <path
         d="m 57.362799,109.29046 v 0.28152 h -1.291166 v -0.28152 z m 0.797983,-1.43721 v 0.9144 h -0.3175 v -0.62442 h -1.634065 v 2.6035 h 0.613833 v 0.28998 h -1.441449 v -0.28998 h 0.512233 v -2.6035 h -0.512233 v -0.28998 z m 1.767296,3.18346 q -0.08678,0 -0.13335,-0.055 -0.04445,-0.055 -0.04445,-0.15452 v -0.67733 l 0.02752,-0.0698 -0.01482,-0.25612 -0.0127,-0.13335 v -0.17145 q 0,-0.17356 -0.07197,-0.28363 -0.06985,-0.11007 -0.2032,-0.16298 -0.13335,-0.0529 -0.321733,-0.0529 -0.281517,0 -0.436033,0.11218 -0.1524,0.11007 -0.2032,0.33232 l -0.2921,-0.0614 q 0.04233,-0.22225 0.15875,-0.3683 0.116417,-0.14817 0.309033,-0.22014 0.194733,-0.0741 0.474133,-0.0741 0.2921,0 0.48895,0.0826 0.198966,0.0804 0.300566,0.24765 0.1016,0.16722 0.1016,0.4318 v 1.27212 h 0.332317 v 0.26246 z m -1.062566,0.0296 q -0.351366,0 -0.533399,-0.15452 -0.182033,-0.15663 -0.182033,-0.45932 0,-0.2794 0.160866,-0.42545 0.160867,-0.14816 0.516467,-0.22225 l 1.013882,-0.2159 v 0.21802 l -0.963083,0.21802 q -0.207433,0.0487 -0.311149,0.14393 -0.1016,0.0931 -0.1016,0.26458 0,0.18627 0.1143,0.2794 0.1143,0.091 0.334433,0.091 0.243416,0 0.436033,-0.11218 0.192616,-0.11219 0.302683,-0.3302 0.110066,-0.21802 0.110066,-0.53764 l 0.08043,0.49954 h -0.10795 q -0.05292,0.35348 -0.275167,0.54821 -0.220133,0.19474 -0.594783,0.19474 z m 3.051837,0.0106 q -0.351366,0 -0.611716,-0.14817 -0.258233,-0.14816 -0.402166,-0.40851 -0.141817,-0.26247 -0.141817,-0.60325 0,-0.25824 0.07832,-0.47202 0.07832,-0.2159 0.224366,-0.37253 0.14605,-0.15875 0.347133,-0.24342 0.201083,-0.0868 0.448733,-0.0868 0.239183,0 0.397933,0.0783 0.160867,0.0762 0.249767,0.21167 0.0889,0.13335 0.114299,0.30692 h 0.07408 l -0.06138,0.31961 q -0.02752,-0.1905 -0.124883,-0.33443 -0.09737,-0.14605 -0.254,-0.22648 -0.156633,-0.0825 -0.361949,-0.0825 -0.245533,0 -0.4318,0.11641 -0.18415,0.1143 -0.287866,0.3175 -0.1016,0.20109 -0.1016,0.46779 0,0.25823 0.103716,0.4572 0.105834,0.19685 0.294217,0.30903 0.1905,0.11218 0.448733,0.11218 0.266699,0 0.459316,-0.11641 0.192616,-0.11854 0.281516,-0.3175 l 0.281517,0.12488 q -0.12065,0.27305 -0.38735,0.4318 -0.264583,0.15875 -0.637116,0.15875 z m 0.717549,-1.41817 v -0.8763 h 0.3048 v 0.8763 z m 2.599265,-0.61383 H 64.79813 v -0.26247 h 0.740833 v 1.99179 h 0.440266 v 0.26246 h -0.745066 z m -1.259416,-0.26247 v 1.43722 q 0,0.27728 0.122767,0.43815 0.124883,0.15875 0.391583,0.15875 0.213783,0 0.381,-0.10795 0.169333,-0.11007 0.266699,-0.31538 0.09737,-0.20532 0.09737,-0.49319 l 0.07408,0.45085 h -0.0889 q -0.05715,0.36407 -0.283633,0.55034 -0.224366,0.18415 -0.552449,0.18415 -0.364067,0 -0.53975,-0.2159 -0.173566,-0.2159 -0.173566,-0.59902 v -1.22555 h -0.408517 v -0.26247 z m 3.041645,1.99179 h 0.46355 v 0.26246 h -1.231899 v -0.26246 h 0.463549 v -2.8194 h -0.463549 v -0.26247 h 0.768349 z m 1.401628,-0.33444 q 0,0.1778 0.06773,0.26882 0.06773,0.0889 0.207433,0.0889 0.137584,0 0.207433,-0.091 0.06985,-0.0931 0.06985,-0.2667 v -0.20955 h 0.275167 v 0.20744 q 0,0.2032 -0.06138,0.34713 -0.05927,0.14182 -0.182034,0.21802 -0.122766,0.0741 -0.315383,0.0741 -0.196849,0 -0.323849,-0.0762 -0.127,-0.0783 -0.188384,-0.22013 -0.06138,-0.14182 -0.06138,-0.34079 l 0.0021,-1.39488 H 67.71317 v -0.26247 h 0.402167 v -0.57149 h 0.3048 v 0.57149 h 0.795866 l -0.0021,0.26247 h -0.793749 z m 2.551674,-1.65735 h 1.049866 v 0.26247 h -0.281517 l -0.931332,2.29235 q -0.1143,0.28363 -0.353483,0.43603 -0.237067,0.1524 -0.59055,0.1524 h -0.22225 v -0.26881 h 0.22225 q 0.237067,0 0.41275,-0.0995 0.1778,-0.0974 0.258233,-0.28786 l 0.160867,-0.39582 -0.05292,0.26247 -0.861483,-2.09127 h -0.311149 v -0.26247 h 1.071032 v 0.26247 h -0.427566 l 0.759882,1.89865 -0.277283,-0.24553 h 0.2921 l -0.15875,0.14393 0.70485,-1.79705 h -0.46355 z m 2.467807,-0.63923 v -0.28998 h 1.356782 v 0.28998 h -0.529166 v 2.6035 h 1.589616 v 0.28998 h -2.417232 v -0.28998 h 0.512233 v -2.6035 z m 2.607731,1.83092 v 1.06256 h -0.317499 v -1.06256 z m 1.475317,1.10278 q -0.34925,0 -0.605366,-0.14817 -0.256116,-0.14816 -0.395816,-0.40851 -0.1397,-0.26247 -0.1397,-0.60325 0,-0.34502 0.1397,-0.6096 0.141816,-0.26459 0.393699,-0.41487 0.254,-0.15028 0.59055,-0.15028 0.338666,0 0.586316,0.14816 0.24765,0.14817 0.381,0.41064 0.13335,0.26246 0.13335,0.60536 0,0.0402 -0.0021,0.0635 0,0.0233 -0.0042,0.0402 h -0.300567 q 0.0021,-0.0254 0.0021,-0.055 0.0021,-0.0318 0.0021,-0.072 0,-0.25188 -0.09737,-0.44662 -0.09525,-0.19685 -0.27305,-0.30903 -0.1778,-0.11218 -0.427566,-0.11218 -0.243417,0 -0.427567,0.11641 -0.184149,0.1143 -0.285749,0.3175 -0.1016,0.20109 -0.1016,0.46779 0,0.25823 0.09948,0.4572 0.1016,0.19685 0.287866,0.30903 0.186267,0.11218 0.442383,0.11218 0.2667,0 0.461433,-0.12488 0.19685,-0.127 0.2921,-0.34502 l 0.287867,0.10795 q -0.124884,0.29845 -0.40005,0.47202 -0.27305,0.17145 -0.639233,0.17145 z m -0.948266,-1.0668 v -0.23495 h 1.934632 l 0.0889,0.23495 z m 4.284127,1.02658 q -0.08678,0 -0.13335,-0.055 -0.04445,-0.055 -0.04445,-0.15452 v -0.67733 l 0.02752,-0.0698 -0.01482,-0.25612 -0.0127,-0.13335 v -0.17145 q 0,-0.17356 -0.07197,-0.28363 -0.06985,-0.11007 -0.2032,-0.16298 -0.13335,-0.0529 -0.321733,-0.0529 -0.281516,0 -0.436033,0.11218 -0.1524,0.11007 -0.2032,0.33232 l -0.2921,-0.0614 q 0.04233,-0.22225 0.15875,-0.3683 0.116417,-0.14817 0.309033,-0.22014 0.194734,-0.0741 0.474133,-0.0741 0.2921,0 0.48895,0.0826 0.198966,0.0804 0.300566,0.24765 0.1016,0.16722 0.1016,0.4318 v 1.27212 h 0.332317 v 0.26246 z m -1.062565,0.0296 q -0.351367,0 -0.5334,-0.15452 -0.182033,-0.15663 -0.182033,-0.45932 0,-0.2794 0.160866,-0.42545 0.160867,-0.14816 0.516467,-0.22225 l 1.013882,-0.2159 v 0.21802 l -0.963082,0.21802 q -0.207434,0.0487 -0.31115,0.14393 -0.1016,0.0931 -0.1016,0.26458 0,0.18627 0.1143,0.2794 0.1143,0.091 0.334433,0.091 0.243416,0 0.436033,-0.11218 0.192616,-0.11219 0.302683,-0.3302 0.110067,-0.21802 0.110067,-0.53764 l 0.08043,0.49954 h -0.10795 q -0.05292,0.35348 -0.275167,0.54821 -0.220133,0.19474 -0.594782,0.19474 z m 2.639484,-0.2921 h 0.440266 v 0.26246 H 81.66498 v -0.26246 h 0.463549 v -1.72932 H 81.66498 v -0.26247 h 0.768349 z m 0.865716,-1.66794 q -0.0381,-0.0106 -0.08255,-0.0169 -0.04233,-0.006 -0.09313,-0.006 -0.313267,0 -0.50165,0.23495 -0.188383,0.23283 -0.188383,0.6477 l -0.07197,-0.49318 h 0.08678 q 0.02963,-0.22437 0.122766,-0.38524 0.09313,-0.16298 0.2413,-0.24976 0.150283,-0.0889 0.351366,-0.0889 0.0381,0 0.06773,0.004 0.03175,0.002 0.06773,0.008 z m 1.060449,1.66794 h 0.402166 v 0.26246 h -1.170516 v -0.26246 h 0.46355 v -1.72932 h -0.46355 v -0.26247 h 0.76835 z m 1.299632,0 v -1.17899 q 0,-0.27728 -0.124883,-0.43603 -0.124884,-0.15875 -0.3937,-0.15875 -0.218017,0 -0.395816,0.10795 -0.1778,0.10795 -0.281517,0.31327 -0.103716,0.20531 -0.103716,0.49741 l -0.06985,-0.45085 h 0.08467 q 0.04022,-0.23071 0.154517,-0.39158 0.1143,-0.16298 0.2921,-0.24765 0.179916,-0.0868 0.412749,-0.0868 0.3683,0 0.548216,0.21378 0.182034,0.21167 0.182034,0.59902 v 1.2192 h 0.433916 v 0.26246 H 85.26331 v -0.26246 z m 1.830919,0 h 0.433916 v 0.26246 h -1.195916 v -0.26246 h 0.4572 v -1.72932 h -0.4572 v -0.26247 h 0.762 z m -0.36195,-2.94217 h 0.389466 v 0.40429 h -0.389466 z m 1.885947,2.94217 h 0.402167 v 0.26246 h -1.170516 v -0.26246 h 0.46355 v -1.72932 h -0.46355 v -0.26247 h 0.768349 z m 1.299633,0 v -1.17899 q 0,-0.27728 -0.124884,-0.43603 -0.124883,-0.15875 -0.393699,-0.15875 -0.218017,0 -0.395817,0.10795 -0.1778,0.10795 -0.281516,0.31327 -0.103717,0.20531 -0.103717,0.49741 l -0.06985,-0.45085 h 0.08467 q 0.04022,-0.23071 0.154516,-0.39158 0.1143,-0.16298 0.2921,-0.24765 0.179917,-0.0868 0.41275,-0.0868 0.3683,0 0.548216,0.21378 0.182033,0.21167 0.182033,0.59902 v 1.2192 h 0.433917 v 0.26246 h -1.134533 v -0.26246 z m 2.139953,1.19803 q -0.296333,0 -0.537632,-0.0571 -0.239184,-0.055 -0.381,-0.17568 -0.141817,-0.12065 -0.141817,-0.31962 0,-0.19897 0.141817,-0.30268 0.143933,-0.1016 0.370416,-0.13335 v -0.036 l 0.376767,0.036 q -0.23495,0 -0.3683,0.055 -0.13335,0.0571 -0.188383,0.14393 -0.05503,0.0889 -0.05503,0.18204 0,0.14393 0.105834,0.22436 0.105833,0.0804 0.283633,0.1143 0.179916,0.0339 0.402166,0.0339 0.446616,0 0.651933,-0.12065 0.207433,-0.11853 0.207433,-0.33232 0,-0.30056 -0.389466,-0.30056 h -0.8636 q -0.253999,0 -0.400049,-0.091 -0.143933,-0.0931 -0.143933,-0.2667 0,-0.1651 0.131233,-0.25188 0.131233,-0.0889 0.374649,-0.10795 v -0.0635 l 0.385233,0.11006 h -0.230716 q -0.182033,0 -0.277283,0.0508 -0.09525,0.0487 -0.09525,0.15029 0,0.0952 0.08678,0.13758 0.0889,0.0402 0.2667,0.0402 h 0.757766 q 0.218017,0 0.370416,0.072 0.154517,0.0699 0.232834,0.20109 0.08043,0.13123 0.08043,0.31326 0,0.19474 -0.110067,0.35137 -0.110066,0.15875 -0.364066,0.24977 -0.251883,0.0931 -0.67945,0.0931 z m -0.0381,-1.65947 q -0.268816,0 -0.478366,-0.0974 -0.20955,-0.0974 -0.3302,-0.27305 -0.120649,-0.17569 -0.120649,-0.41275 0,-0.23707 0.118533,-0.41275 0.12065,-0.1778 0.328083,-0.27517 0.20955,-0.0995 0.482599,-0.0995 0.277284,0 0.48895,0.10371 0.213783,0.10372 0.325966,0.28787 0.05503,0.0847 0.08043,0.18415 0.02752,0.0974 0.02752,0.21167 0,0.23706 -0.118533,0.41275 -0.118533,0.17568 -0.328083,0.27305 -0.207433,0.0974 -0.47625,0.0974 z m 0,-0.24976 q 0.179917,0 0.319617,-0.0656 0.141816,-0.0656 0.22225,-0.18627 0.08255,-0.12065 0.08255,-0.28151 0,-0.16087 -0.08255,-0.28152 -0.08043,-0.12277 -0.22225,-0.18838 -0.1397,-0.0677 -0.319617,-0.0677 -0.184149,0 -0.325966,0.0677 -0.141816,0.0656 -0.224366,0.18838 -0.08043,0.12065 -0.08043,0.28152 0,0.16086 0.08043,0.28151 0.08255,0.12065 0.224366,0.18627 0.143933,0.0656 0.325966,0.0656 z m 0.922866,-0.5334 -0.105833,-0.24765 -0.09313,-0.1524 0.08467,-0.0339 q -0.0063,-0.0212 -0.01058,-0.0423 -0.0021,-0.0233 -0.0021,-0.0487 0,-0.0889 0.04233,-0.16086 0.04233,-0.072 0.122766,-0.1143 0.08043,-0.0423 0.19685,-0.0423 0.02963,0 0.05292,0.002 0.0254,0.002 0.04868,0.008 v 0.29421 q -0.04022,-0.006 -0.07408,-0.008 -0.03387,-0.004 -0.06773,-0.004 -0.0889,0 -0.143934,0.0254 -0.05292,0.0254 -0.0762,0.0656 -0.02328,0.0381 -0.02328,0.0847 0,0.0444 0.0127,0.0974 0.0127,0.0508 0.02328,0.11854 0.0127,0.0677 0.0127,0.15875 z m 3.54753,1.55151 q -0.349249,0 -0.641349,-0.12065 -0.2921,-0.12065 -0.505883,-0.34078 -0.213783,-0.22013 -0.332316,-0.5207 -0.116417,-0.30268 -0.116417,-0.66252 0,-0.35771 0.1143,-0.65616 0.1143,-0.29845 0.325966,-0.51435 0.213784,-0.2159 0.505883,-0.33443 0.2921,-0.12065 0.643466,-0.12065 0.345017,0 0.5969,0.1143 0.251883,0.1143 0.4064,0.32596 0.156633,0.21167 0.213783,0.50588 h 0.1016 l -0.08678,0.34502 q -0.09737,-0.46143 -0.423333,-0.71967 -0.325966,-0.26034 -0.800099,-0.26034 -0.376766,0 -0.660399,0.16721 -0.283633,0.1651 -0.442383,0.46143 -0.15875,0.29634 -0.15875,0.6858 0,0.29422 0.09313,0.53975 0.09313,0.24554 0.26035,0.42334 0.167216,0.1778 0.397933,0.27516 0.230716,0.0952 0.507999,0.0952 0.313267,0 0.567267,-0.12276 0.253999,-0.12277 0.421216,-0.34714 0.169333,-0.22648 0.230716,-0.52705 l 0.325967,0.0677 q -0.0762,0.37465 -0.289983,0.65405 -0.213783,0.2794 -0.535516,0.43391 -0.319617,0.1524 -0.719667,0.1524 z m 1.225549,-1.97908 v -1.24883 h 0.315384 v 1.24883 z m 1.902877,1.97485 q -0.351363,0 -0.615946,-0.14817 -0.264583,-0.15028 -0.41275,-0.41063 -0.148166,-0.26035 -0.148166,-0.60113 0,-0.3429 0.148166,-0.60749 0.148167,-0.2667 0.41275,-0.41698 0.264583,-0.15028 0.615946,-0.15028 0.35137,0 0.61595,0.15028 0.26459,0.15028 0.41275,0.41698 0.14817,0.26459 0.14817,0.60749 0,0.34078 -0.14817,0.60113 -0.14816,0.26035 -0.41275,0.41063 -0.26458,0.14817 -0.61595,0.14817 z m 0,-0.28152 q 0.254,0 0.44662,-0.11006 0.19473,-0.11007 0.30268,-0.30692 0.11007,-0.19897 0.11007,-0.46143 0,-0.26459 -0.11007,-0.46567 -0.10795,-0.20108 -0.30268,-0.31327 -0.19262,-0.1143 -0.44662,-0.1143 -0.253996,0 -0.44873,0.1143 -0.192616,0.11219 -0.302683,0.31327 -0.10795,0.20108 -0.10795,0.46567 0,0.26246 0.10795,0.46143 0.110067,0.19685 0.302683,0.30692 0.194734,0.11006 0.44873,0.11006 z m 4.73287,0.2413 v -0.26246 h 0.39793 v -1.18322 q 0,-0.27728 -0.12277,-0.43392 -0.12276,-0.15663 -0.38311,-0.15663 -0.20955,0 -0.37253,0.11007 -0.16299,0.11006 -0.25612,0.31538 -0.0931,0.20532 -0.0931,0.49318 l -0.0741,-0.45296 h 0.0868 q 0.0529,-0.3683 0.27305,-0.55034 0.22225,-0.18203 0.53974,-0.18203 0.35772,0 0.53129,0.21167 0.17568,0.21166 0.17568,0.5969 v 1.2319 h 0.4318 v 0.26246 z m -3.11997,0 v -0.26246 h 0.45085 v -1.72932 h -0.45085 v -0.26247 h 0.75565 v 1.99179 h 0.40005 v 0.26246 z m 1.5875,0 v -0.26246 h 0.39794 v -1.18322 q 0,-0.27728 -0.12277,-0.43392 -0.12277,-0.15663 -0.38312,-0.15663 -0.20955,0 -0.37253,0.11007 -0.16298,0.11006 -0.25823,0.31538 -0.0931,0.20532 -0.0931,0.49318 l -0.072,-0.45296 h 0.0868 q 0.0508,-0.3683 0.27305,-0.55034 0.22225,-0.18203 0.53975,-0.18203 0.35772,0 0.53128,0.21167 0.17569,0.21166 0.17569,0.5969 v 1.2319 h 0.4318 v 0.26246 z m 6.08753,0 v -0.26246 h 0.39794 v -1.18322 q 0,-0.27728 -0.12277,-0.43392 -0.12277,-0.15663 -0.38312,-0.15663 -0.20955,0 -0.37253,0.11007 -0.16298,0.11006 -0.25612,0.31538 -0.0931,0.20532 -0.0931,0.49318 l -0.0741,-0.45296 h 0.0868 q 0.0529,-0.3683 0.27305,-0.55034 0.22225,-0.18203 0.53975,-0.18203 0.35772,0 0.53128,0.21167 0.17569,0.21166 0.17569,0.5969 v 1.2319 h 0.4318 v 0.26246 z m -3.11996,0 v -0.26246 h 0.45085 v -1.72932 h -0.45085 v -0.26247 h 0.75565 v 1.99179 h 0.40005 v 0.26246 z m 1.5875,0 v -0.26246 h 0.39793 v -1.18322 q 0,-0.27728 -0.12277,-0.43392 -0.12276,-0.15663 -0.38311,-0.15663 -0.20955,0 -0.37253,0.11007 -0.16299,0.11006 -0.25824,0.31538 -0.0931,0.20532 -0.0931,0.49318 l -0.072,-0.45296 h 0.0868 q 0.0508,-0.3683 0.27305,-0.55034 0.22224,-0.18203 0.53974,-0.18203 0.35772,0 0.53129,0.21167 0.17568,0.21166 0.17568,0.5969 v 1.2319 h 0.4318 v 0.26246 z m 4.8046,-1.99178 h -0.43603 v -0.26247 h 0.74083 v 1.99179 h 0.44026 v 0.26246 h -0.74506 z m -1.25942,-0.26247 v 1.43722 q 0,0.27728 0.12277,0.43815 0.12488,0.15875 0.39158,0.15875 0.21379,0 0.381,-0.10795 0.16934,-0.11007 0.2667,-0.31538 0.0974,-0.20532 0.0974,-0.49319 l 0.0741,0.45085 h -0.0889 q -0.0572,0.36407 -0.28363,0.55034 -0.22437,0.18415 -0.55245,0.18415 -0.36407,0 -0.53975,-0.2159 -0.17357,-0.2159 -0.17357,-0.59902 v -1.22555 h -0.40851 v -0.26247 z m 3.09457,1.99179 h 0.40216 v 0.26246 h -1.17051 v -0.26246 h 0.46355 v -1.72932 h -0.46355 v -0.26247 h 0.76835 z m 1.29963,0 v -1.17899 q 0,-0.27728 -0.12489,-0.43603 -0.12488,-0.15875 -0.3937,-0.15875 -0.21801,0 -0.39581,0.10795 -0.1778,0.10795 -0.28152,0.31327 -0.10371,0.20531 -0.10371,0.49741 l -0.0699,-0.45085 h 0.0847 q 0.0402,-0.23071 0.15452,-0.39158 0.1143,-0.16298 0.2921,-0.24765 0.17991,-0.0868 0.41275,-0.0868 0.3683,0 0.54821,0.21378 0.18204,0.21167 0.18204,0.59902 v 1.2192 h 0.43391 v 0.26246 h -1.13453 v -0.26246 z m 1.83091,0 h 0.43392 v 0.26246 h -1.19591 v -0.26246 h 0.45719 v -1.72932 h -0.45719 v -0.26247 h 0.76199 z m -0.36195,-2.94217 h 0.38947 v 0.40429 h -0.38947 z m 1.72085,2.60773 q 0,0.1778 0.0677,0.26882 0.0677,0.0889 0.20743,0.0889 0.13758,0 0.20743,-0.091 0.0699,-0.0931 0.0699,-0.2667 v -0.20955 h 0.27517 v 0.20744 q 0,0.2032 -0.0614,0.34713 -0.0593,0.14182 -0.18204,0.21802 -0.12276,0.0741 -0.31538,0.0741 -0.19685,0 -0.32385,-0.0762 -0.127,-0.0783 -0.18838,-0.22013 -0.0614,-0.14182 -0.0614,-0.34079 l 0.002,-1.39488 h -0.40217 v -0.26247 h 0.40217 v -0.57149 h 0.3048 v 0.57149 h 0.79587 l -0.002,0.26247 h -0.79375 z m 2.55168,-1.65735 h 1.04986 v 0.26247 h -0.28151 l -0.93134,2.29235 q -0.1143,0.28363 -0.35348,0.43603 -0.23707,0.1524 -0.59055,0.1524 h -0.22225 v -0.26881 h 0.22225 q 0.23707,0 0.41275,-0.0995 0.1778,-0.0974 0.25823,-0.28786 l 0.16087,-0.39582 -0.0529,0.26247 -0.86148,-2.09127 h -0.31115 v -0.26247 h 1.07103 v 0.26247 h -0.42756 l 0.75988,1.89865 -0.27728,-0.24553 h 0.2921 l -0.15875,0.14393 0.70485,-1.79705 h -0.46355 z"
         id="text3"
         style="font-size:4.23333px;line-height:1.25;font-family:'Hepta Slab';-inkscape-font-specification:'Hepta Slab, @wght=400';font-variation-settings:'wght' 400;text-align:center;text-anchor:middle;fill:#00205b;stroke-width:0.264583"
         aria-label="Faculty Learning Community" />
    </g>
  </g>
</svg>
