<?xml version="1.0" encoding="UTF-8" standalone="no"?>
<!-- Created with Inkscape (http://www.inkscape.org/) -->

<svg
   width="140mm"
   height="110mm"
   viewBox="0 0 140 110"
   version="1.1"
   id="svg1"
   inkscape:version="1.4 (86a8ad7, 2024-10-11)"
   sodipodi:docname="OpenSouth.svg"
   xmlns:inkscape="http://www.inkscape.org/namespaces/inkscape"
   xmlns:sodipodi="http://sodipodi.sourceforge.net/DTD/sodipodi-0.dtd"
   xmlns="http://www.w3.org/2000/svg"
   xmlns:svg="http://www.w3.org/2000/svg">
  <sodipodi:namedview
     id="namedview1"
     pagecolor="#ffffff"
     bordercolor="#666666"
     borderopacity="1.0"
     inkscape:showpageshadow="2"
     inkscape:pageopacity="0.0"
     inkscape:pagecheckerboard="0"
     inkscape:deskcolor="#d1d1d1"
     inkscape:document-units="mm"
     inkscape:zoom="1.026783"
     inkscape:cx="259.54852"
     inkscape:cy="195.27009"
     inkscape:window-width="1920"
     inkscape:window-height="1017"
     inkscape:window-x="1912"
     inkscape:window-y="-8"
     inkscape:window-maximized="1"
     inkscape:current-layer="layer1" />
  <defs
     id="defs1" />
  <g
     inkscape:label="Layer 1"
     inkscape:groupmode="layer"
     id="layer1"
     transform="translate(8.8753976,-7.7200651)">
    <g
       id="g1"
       transform="translate(2.8809613,3.244244)">
      <path
         d="m 28.087947,98.266818 q -3.757086,0 -5.979587,-1.534585 -2.222502,-1.552223 -2.73403,-4.215697 h -0.617361 l 0.493889,-2.645835 q 0.493889,2.875141 2.734029,4.480281 2.240141,1.60514 5.715004,1.60514 3.104447,0 4.744865,-1.270001 1.640417,-1.28764 1.640417,-3.68653 0,-1.587502 -0.740833,-2.645836 -0.740834,-1.075973 -2.398891,-1.746251 -1.640418,-0.687917 -4.392086,-1.093612 -3.404308,-0.493889 -5.591532,-1.481667 -2.169585,-0.987779 -3.227919,-2.522363 -1.058334,-1.534584 -1.058334,-3.651253 0,-3.227918 2.204863,-5.027086 2.222501,-1.799168 6.10306,-1.799168 2.434168,0 4.127502,0.705556 1.710974,0.687917 2.698752,1.993196 0.987779,1.305278 1.28764,3.104446 h 0.599723 l -0.511529,2.592919 q -0.458611,-2.857502 -2.55764,-4.462642 -2.08139,-1.622779 -5.29167,-1.622779 -2.769308,0 -4.374448,1.164167 -1.60514,1.146529 -1.60514,3.227919 0,1.358196 0.758473,2.345974 0.758473,0.970139 2.434168,1.658057 1.675696,0.670278 4.409725,1.164167 3.527781,0.546806 5.679727,1.534584 2.151945,0.987779 3.139724,2.557641 1.005417,1.552223 1.005417,3.827642 0,3.52778 -2.275418,5.485698 -2.275418,1.957918 -6.42056,1.957918 z M 16.605023,97.91404 v -8.043339 h 2.645835 V 97.91404 Z M 33.185589,79.428472 v -8.043339 h 2.645836 v 8.043339 z m 16.633516,18.820707 q -2.928057,0 -5.13292,-1.234723 -2.204863,-1.252362 -3.439586,-3.421947 -1.234723,-2.169585 -1.234723,-5.009448 0,-2.857502 1.234723,-5.062364 1.234723,-2.222502 3.439586,-3.474864 2.204863,-1.252362 5.13292,-1.252362 2.928058,0 5.13292,1.252362 2.204863,1.252362 3.439586,3.474864 1.234723,2.204862 1.234723,5.062364 0,2.839863 -1.234723,5.009448 -1.234723,2.169585 -3.439586,3.421947 -2.204862,1.234723 -5.13292,1.234723 z m 0,-2.345974 q 2.116668,0 3.721808,-0.917223 1.622779,-0.917223 2.522363,-2.557641 0.917223,-1.658056 0.917223,-3.84528 0,-2.204862 -0.917223,-3.880558 -0.899584,-1.675696 -2.522363,-2.610557 -1.60514,-0.952501 -3.721808,-0.952501 -2.116668,0 -3.739447,0.952501 -1.60514,0.934861 -2.522363,2.610557 -0.899584,1.675696 -0.899584,3.880558 0,2.187224 0.899584,3.84528 0.917223,1.640418 2.522363,2.557641 1.622779,0.917223 3.739447,0.917223 z M 78.782212,81.315834 H 75.148599 V 79.12861 h 6.173615 v 16.598206 h 3.668891 V 97.91404 H 78.782212 Z M 68.287066,79.12861 v 11.976814 q 0,2.310696 1.023057,3.651252 1.040695,1.322918 3.263196,1.322918 1.781529,0 3.175002,-0.899584 1.411112,-0.917223 2.222502,-2.628196 0.811389,-1.710974 0.811389,-4.109864 l 0.617362,3.757086 H 78.65874 q -0.47625,3.033891 -2.363613,4.586114 -1.869723,1.534584 -4.603753,1.534584 -3.033891,0 -4.49792,-1.799168 -1.446389,-1.799167 -1.446389,-4.991808 V 81.315834 H 62.342757 V 79.12861 Z m 24.412217,13.81126 q 0,1.481667 0.564444,2.24014 0.564445,0.740834 1.728613,0.740834 1.146528,0 1.728612,-0.758473 0.582084,-0.776112 0.582084,-2.222501 v -1.746252 h 2.293057 v 1.728613 q 0,1.693334 -0.511528,2.892779 -0.49389,1.181807 -1.516946,1.816807 -1.023056,0.617362 -2.628196,0.617362 -1.640418,0 -2.698752,-0.635001 -1.058334,-0.652639 -1.569862,-1.834445 -0.511528,-1.181807 -0.511528,-2.839863 L 90.17692,81.315834 H 86.825529 V 79.12861 h 3.351391 v -4.762503 h 2.540001 v 4.762503 h 6.632227 l -0.01764,2.187224 h -6.614588 z m 15.694777,2.786946 h 3.33375 v 2.187224 h -9.64848 v -2.187224 h 3.77472 V 72.2318 h -3.77472 v -2.187224 h 6.31473 z m 10.83028,0 v -9.877785 q 0,-2.293057 -1.04069,-3.598335 -1.02306,-1.305279 -3.22792,-1.305279 -1.85209,0 -3.33376,0.952501 -1.48166,0.934861 -2.36361,2.734029 -0.8643,1.781529 -0.8643,4.303892 l -0.59973,-3.757086 h 0.70556 q 0.35278,-2.063751 1.32292,-3.492502 0.98778,-1.44639 2.50472,-2.204863 1.51695,-0.758472 3.47486,-0.758472 3.06917,0 4.51556,1.76389 1.44639,1.76389 1.44639,4.956531 v 10.283479 h 3.59834 v 2.187224 h -9.45445 v -2.187224 z"
         id="text1"
         style="font-size:35.2778px;line-height:1.25;font-family:'Hepta Slab';-inkscape-font-specification:'Hepta Slab, @wght=400';font-variation-settings:'wght' 400;text-align:center;text-anchor:middle;fill:#bf0d3e;stroke-width:0.264583"
         aria-label="South" />
      <g
         id="group-R5"
         transform="matrix(0.09834582,0,0,0.09834582,-11.235712,5.3602884)"
         style="fill:#bf0d3e;fill-opacity:1">
        <path
           id="path2"
           d="m 652.121,1569.44 c 0.707,-501.73 403.529,-905.741 896.959,-915.6 505.42,-10.102 934.39,394.15 933.75,916.1 -0.63,511.95 -411.05,906.75 -899.67,914.52 -518.05,8.25 -930.683,-410.51 -931.039,-915.02 z M 1493.57,180 c -17.77,2.441 -35.48,5.512 -53.33,7.23 -307.98,29.668 -577.228,148.008 -805.83,356.09 -234.023,213.02 -382.785,476.15 -433.437,788.32 -74.004,456.07 47.949,857.34 364.238,1195.13 209.883,224.16 470.049,360.95 772.839,410.94 324.5,53.57 631.53,-1.59 918.54,-163.73 5.03,-2.84 10.15,-5.52 17.02,-9.25 0.72,3.73 1.54,5.95 1.54,8.18 -0.17,220.4 3.85,440.91 -1.61,661.19 -8.23,332.06 -263.01,615.47 -591.74,666.91 -385.03,60.25 -746.351,-199.59 -806.163,-583.51 -11.348,-72.83 -7.039,-148.11 -9.699,-222.28 -0.586,-16.28 -0.086,-32.6 -0.086,-49.97 -158.024,0 -314.27,0 -470.739,0 -0.851,2.1 -2.183,3.85 -2.187,5.6 -0.117,106.48 -3.774,213.11 11.558,319.02 29.422,203.25 105.27,387.42 230.946,549.84 175.531,226.87 403.58,373.05 683.94,435.43 50.47,11.23 102.46,15.63 153.73,23.31 4.27,0.64 8.39,2.3 12.57,3.49 59.22,0 118.44,0 177.66,0 24.19,-3.72 48.35,-7.64 72.58,-11.14 506.64,-73.2 903.55,-457.44 993.29,-964.24 11.4,-64.38 17.3,-130.57 17.6,-195.96 1.66,-362.53 0.67,-725.08 1.29,-1087.61 0.02,-14.19 4.36,-30.09 11.58,-42.3 102.41,-173.38 167.74,-359.42 187.01,-560.01 42.52,-442.54 -92.1,-824.239 -405.76,-1138.95 -214.51,-215.242 -475.9,-342.57 -777.17,-386.14 -38.31,-5.539 -77.1,-7.781 -115.64,-11.789 -4.23,-0.442 -8.28,-2.492 -12.41,-3.801 -47.38,0 -94.76,0 -142.13,0"
           style="fill:#bf0d3e;fill-opacity:1;fill-rule:nonzero;stroke:none"
           transform="matrix(0.13333333,0,0,-0.13333333,0,634.92)" />
        <path
           id="path3"
           d="m 1571.85,1175.42 c -214.11,0.06 -389.95,174.35 -389.27,389 0.68,214.83 168.55,390.08 389.97,389.89 221.8,-0.19 388.01,-176.42 389.19,-388.63 1.19,-215.2 -174.65,-390.33 -389.89,-390.26"
           style="fill:#bf0d3e;fill-opacity:1;fill-rule:nonzero;stroke:none"
           transform="matrix(0.13333333,0,0,-0.13333333,0,634.92)" />
      </g>
      <path
         d="M 31.941528,65.441719 V 29.37372 h 15.2908 q 2.4892,0 4.572,1.016 2.0828,1.016 3.6068,2.7432 1.5748,1.7272 2.4384,3.860799 0.8636,2.1336 0.8636,4.3688 0,3.048 -1.4224,5.7912 -1.4224,2.7432 -3.9116,4.4704 -2.4892,1.7272 -5.8928,1.7272 h -8.5344 v 12.0904 z m 7.0104,-18.2372 h 8.128 q 1.27,0 2.286,-0.7112 1.016,-0.7112 1.6256,-2.032 0.6096,-1.3716 0.6096,-3.0988 0,-1.8796 -0.7112,-3.2004 -0.6604,-1.3208 -1.778,-1.9812 -1.0668,-0.660399 -2.3368,-0.660399 h -7.8232 z m 49.682359,12.0904 v 6.1468 h -25.0444 V 29.37372 h 24.5872 v 6.1468 h -17.5768 v 8.686799 h 15.1892 v 5.6896 h -15.1892 v 9.398 z m 12.496793,-17.018 v 23.1648 H 94.120678 V 29.37372 h 5.588 L 118.35228,53.148119 V 29.42452 h 7.0104 v 36.017199 h -5.842 z"
         id="text2"
         style="font-size:50.8px;line-height:1.25;font-family:Raleway;-inkscape-font-specification:'Raleway, Normal';text-align:center;text-anchor:middle;fill:#00205b;stroke-width:0.264583"
         aria-label="PEN" />
      <path
         d="m -4.9129955,105.86794 v 0.56304 h -2.5823344 v -0.56304 z m 1.5959673,-2.87443 v 1.8288 h -0.6350003 v -1.24884 h -3.2681346 v 5.20701 h 1.2276671 v 0.57996 h -2.8829011 v -0.57996 H -7.85093 v -5.20701 h -1.0244671 v -0.57996 z m 3.53459712,6.36693 q -0.17356673,0 -0.2667001,-0.11006 -0.08890004,-0.11007 -0.08890004,-0.30904 v -1.35466 l 0.05503336,-0.1397 -0.02963335,-0.51224 -0.0254,-0.2667 v -0.3429 q 0,-0.34713 -0.14393339,-0.56726 -0.13970005,-0.22014 -0.40640016,-0.32597 -0.26670011,-0.10584 -0.64346693,-0.10584 -0.5630335,0 -0.872067,0.22437 -0.3048001,0.22014 -0.4064002,0.66464 l -0.5842002,-0.12277 q 0.084667,-0.4445 0.3175001,-0.7366 0.2328335,-0.29634 0.6180669,-0.44027 0.3894669,-0.14817 0.9482671,-0.14817 0.58420022,0 0.97790037,0.1651 0.39793349,0.16087 0.60113357,0.4953 0.20320009,0.33444 0.20320009,0.86361 v 2.54423 H 1.1362026 v 0.52493 z m -2.12513422,0.0593 q -0.7027336,0 -1.0668004,-0.30903 -0.3640668,-0.31327 -0.3640668,-0.91864 0,-0.5588 0.3217335,-0.8509 0.3217334,-0.29633 1.0329337,-0.4445 l 2.02776749,-0.4318 v 0.43604 l -1.92616739,0.43603 q -0.4148669,0.0974 -0.6223003,0.28787 -0.2032001,0.18626 -0.2032001,0.52916 0,0.37254 0.2286001,0.5588 0.2286001,0.18204 0.668867,0.18204 0.4868335,0 0.87206696,-0.22437 0.38523349,-0.22437 0.60536691,-0.6604 0.22013342,-0.43603 0.22013342,-1.07527 l 0.16086673,0.99907 h -0.21590008 q -0.10583338,0.70697 -0.55033355,1.09643 -0.44026689,0.38947 -1.18956719,0.38947 z m 6.1036804,0.0212 q -0.7027336,0 -1.2234339,-0.29634 -0.5164668,-0.29633 -0.8043336,-0.81703 -0.2836335,-0.52493 -0.2836335,-1.2065 0,-0.51647 0.1566334,-0.94403 0.1566334,-0.4318 0.4487336,-0.74507 0.2921001,-0.3175 0.6942669,-0.48684 0.4021668,-0.17356 0.897467,-0.17356 0.4783669,0 0.795867,0.15663 0.3217335,0.1524 0.4995335,0.42333 0.1778001,0.2667 0.2286001,0.61384 h 0.1481668 l -0.1227668,0.63923 q -0.055033,-0.381 -0.2497667,-0.66886 -0.1947334,-0.29211 -0.5080002,-0.45297 -0.3132668,-0.1651 -0.7239003,-0.1651 -0.4910669,0 -0.8636004,0.23283 -0.3683001,0.2286 -0.5757335,0.635 -0.2032001,0.40217 -0.2032001,0.93557 0,0.51647 0.2074334,0.9144 0.2116668,0.3937 0.5884336,0.61807 0.3810001,0.22436 0.897467,0.22436 0.5334002,0 0.9186337,-0.23283 0.3852335,-0.23707 0.5630336,-0.635 l 0.5630335,0.24977 q -0.2413001,0.5461 -0.7747003,0.8636 -0.5291669,0.3175 -1.2742338,0.3175 z m 1.4351005,-2.83634 v -1.7526 h 0.6096003 v 1.7526 z m 5.1985354,-1.22767 H 9.9576841 v -0.52493 h 1.4816669 v 3.98357 h 0.880534 v 0.52493 h -1.490134 z m -2.5188342,-0.52493 v 2.87444 q 0,0.55456 0.2455335,0.8763 0.2497667,0.3175 0.7831669,0.3175 0.4275669,0 0.7620008,-0.2159 0.338666,-0.22014 0.5334,-0.63077 0.194733,-0.41063 0.194733,-0.98637 l 0.148167,0.9017 h -0.1778 q -0.1143,0.72814 -0.567267,1.10067 -0.4487336,0.3683 -1.1049005,0.3683 -0.7281336,0 -1.0795004,-0.4318 -0.3471335,-0.4318 -0.3471335,-1.19803 v -2.45111 H 6.8842829 v -0.52493 z m 6.0832972,3.98357 h 0.927101 v 0.52493 h -2.463801 v -0.52493 h 0.9271 v -5.6388 h -0.9271 v -0.52494 h 1.5367 z m 2.803261,-0.66887 q 0,0.3556 0.135467,0.53764 0.135467,0.1778 0.414867,0.1778 0.275167,0 0.414867,-0.18204 0.1397,-0.18626 0.1397,-0.5334 v -0.4191 h 0.550333 v 0.41487 q 0,0.4064 -0.122766,0.69427 -0.118534,0.28363 -0.364067,0.43603 -0.245534,0.14817 -0.630767,0.14817 -0.3937,0 -0.6477,-0.1524 -0.254,-0.15664 -0.376767,-0.44027 -0.122767,-0.28363 -0.122767,-0.68157 l 0.0042,-2.78977 h -0.804333 v -0.52493 h 0.804333 v -1.143 h 0.609601 v 1.143 h 1.591734 l -0.0042,0.52493 h -1.5875 z m 5.103354,-3.3147 h 2.099734 v 0.52493 H 23.83753 l -1.862667,4.58471 q -0.228601,0.56726 -0.706967,0.87206 -0.474134,0.3048 -1.181101,0.3048 h -0.4445 v -0.53763 h 0.4445 q 0.474134,0 0.8255,-0.19897 0.355601,-0.19473 0.516467,-0.57573 l 0.321734,-0.79163 -0.105834,0.52493 -1.722967,-4.18254 h -0.6223 v -0.52493 h 2.142067 v 0.52493 h -0.855133 l 1.519767,3.79731 -0.554567,-0.49107 h 0.5842 l -0.3175,0.28787 1.409701,-3.59411 h -0.927101 z m 4.935617,-1.27847 v -0.57996 h 2.713568 v 0.57996 H 28.89168 v 5.20701 h 3.179235 v 0.57996 h -4.834469 v -0.57996 h 1.024467 v -5.20701 z m 5.215469,3.66184 v 2.12513 h -0.635001 v -2.12513 z m 2.950637,2.20557 q -0.6985,0 -1.210733,-0.29634 -0.512234,-0.29633 -0.791634,-0.81703 -0.2794,-0.52493 -0.2794,-1.2065 0,-0.69003 0.2794,-1.2192 0.283633,-0.52917 0.7874,-0.82974 0.508,-0.30056 1.181101,-0.30056 0.677333,0 1.172634,0.29633 0.4953,0.29633 0.762,0.82127 0.2667,0.52493 0.2667,1.21073 0,0.0804 -0.0042,0.127 0,0.0466 -0.0085,0.0804 h -0.601134 q 0.0042,-0.0508 0.0042,-0.11007 0.0042,-0.0635 0.0042,-0.14393 0,-0.50377 -0.194733,-0.89324 -0.1905,-0.3937 -0.546101,-0.61807 -0.3556,-0.22436 -0.855133,-0.22436 -0.486834,0 -0.855134,0.23283 -0.3683,0.2286 -0.5715,0.635 -0.2032,0.40217 -0.2032,0.93557 0,0.51647 0.198966,0.9144 0.203201,0.3937 0.575734,0.61807 0.372534,0.22436 0.884767,0.22436 0.5334,0 0.922867,-0.24976 0.3937,-0.254 0.5842,-0.69004 l 0.575734,0.2159 q -0.249767,0.5969 -0.8001,0.94404 -0.546101,0.3429 -1.278468,0.3429 z m -1.896534,-2.1336 v -0.4699 h 3.869269 l 0.1778,0.4699 z m 8.568266,2.05316 q -0.173567,0 -0.2667,-0.11006 -0.0889,-0.11007 -0.0889,-0.30904 v -1.35466 l 0.05503,-0.1397 -0.02963,-0.51224 -0.0254,-0.2667 v -0.3429 q 0,-0.34713 -0.143933,-0.56726 -0.1397,-0.22014 -0.406401,-0.32597 -0.2667,-0.10584 -0.643466,-0.10584 -0.563034,0 -0.872068,0.22437 -0.3048,0.22014 -0.4064,0.66464 l -0.5842,-0.12277 q 0.08467,-0.4445 0.3175,-0.7366 0.232834,-0.29634 0.618067,-0.44027 0.389467,-0.14817 0.948267,-0.14817 0.5842,0 0.977901,0.1651 0.397933,0.16087 0.601133,0.4953 0.2032,0.33444 0.2032,0.86361 v 2.54423 h 0.664634 v 0.52493 z m -2.125134,0.0593 q -0.702734,0 -1.0668,-0.30903 -0.364067,-0.31327 -0.364067,-0.91864 0,-0.5588 0.321733,-0.8509 0.321734,-0.29633 1.032934,-0.4445 l 2.027767,-0.4318 v 0.43604 l -1.926167,0.43603 q -0.414867,0.0974 -0.6223,0.28787 -0.2032,0.18626 -0.2032,0.52916 0,0.37254 0.2286,0.5588 0.2286,0.18204 0.668867,0.18204 0.486833,0 0.872067,-0.22437 0.385233,-0.22437 0.605367,-0.6604 0.220133,-0.43603 0.220133,-1.07527 l 0.160867,0.99907 h -0.2159 q -0.105834,0.70697 -0.550334,1.09643 -0.440267,0.38947 -1.189567,0.38947 z m 5.278976,-0.5842 h 0.880534 v 0.52493 h -2.417234 v -0.52493 h 0.9271 v -3.45864 h -0.9271 v -0.52493 h 1.5367 z m 1.731434,-3.33587 q -0.0762,-0.0212 -0.1651,-0.0339 -0.08467,-0.0127 -0.186266,-0.0127 -0.626534,0 -1.003301,0.46991 -0.376767,0.46566 -0.376767,1.2954 l -0.143933,-0.98637 h 0.173567 q 0.05927,-0.44873 0.245533,-0.77047 0.186267,-0.32597 0.4826,-0.49953 0.300567,-0.1778 0.702734,-0.1778 0.0762,0 0.135467,0.008 0.0635,0.004 0.135466,0.0169 z m 2.120899,3.33587 h 0.804334 v 0.52493 h -2.341034 v -0.52493 h 0.9271 v -3.45864 h -0.9271 v -0.52493 h 1.5367 z m 2.599268,0 v -2.35797 q 0,-0.55456 -0.249767,-0.87207 -0.249766,-0.3175 -0.7874,-0.3175 -0.436033,0 -0.791634,0.2159 -0.3556,0.2159 -0.563033,0.62654 -0.207434,0.41063 -0.207434,0.99483 l -0.1397,-0.9017 h 0.169334 q 0.08043,-0.46143 0.309033,-0.78317 0.2286,-0.32596 0.5842,-0.4953 0.359834,-0.17356 0.825501,-0.17356 0.7366,0 1.096434,0.42756 0.364066,0.42334 0.364066,1.19804 v 2.4384 h 0.867834 v 0.52493 h -2.269067 v -0.52493 z m 3.661843,0 h 0.867833 v 0.52493 h -2.391834 v -0.52493 h 0.9144 v -3.45864 h -0.9144 v -0.52493 h 1.524001 z m -0.723901,-5.88434 h 0.778934 v 0.80857 h -0.778934 z m 3.771903,5.88434 h 0.804334 v 0.52493 h -2.341035 v -0.52493 h 0.927101 v -3.45864 h -0.927101 v -0.52493 h 1.536701 z m 2.599268,0 v -2.35797 q 0,-0.55456 -0.249767,-0.87207 -0.249767,-0.3175 -0.7874,-0.3175 -0.436034,0 -0.791634,0.2159 -0.3556,0.2159 -0.563034,0.62654 -0.207433,0.41063 -0.207433,0.99483 l -0.1397,-0.9017 h 0.169333 q 0.08043,-0.46143 0.309034,-0.78317 0.2286,-0.32596 0.5842,-0.4953 0.359834,-0.17356 0.8255,-0.17356 0.736601,0 1.096434,0.42756 0.364067,0.42334 0.364067,1.19804 v 2.4384 h 0.867834 v 0.52493 h -2.269068 v -0.52493 z m 4.279905,2.39607 q -0.592667,0 -1.075267,-0.1143 -0.478367,-0.11007 -0.762,-0.35137 -0.283634,-0.2413 -0.283634,-0.63923 0,-0.39794 0.283634,-0.60537 0.287867,-0.2032 0.740833,-0.2667 v -0.072 l 0.753534,0.072 q -0.4699,0 -0.7366,0.11007 -0.2667,0.1143 -0.376767,0.28786 -0.110067,0.1778 -0.110067,0.36407 0,0.28787 0.211667,0.44873 0.211667,0.16087 0.567267,0.2286 0.359833,0.0677 0.804333,0.0677 0.893234,0 1.303868,-0.2413 0.414867,-0.23707 0.414867,-0.66464 0,-0.60113 -0.778934,-0.60113 h -1.727201 q -0.508,0 -0.8001,-0.18203 -0.287867,-0.18627 -0.287867,-0.5334 0,-0.3302 0.262467,-0.50377 0.262467,-0.1778 0.7493,-0.2159 v -0.127 l 0.770467,0.22013 h -0.461433 q -0.364067,0 -0.554567,0.1016 -0.1905,0.0974 -0.1905,0.30057 0,0.1905 0.173566,0.27517 0.1778,0.0804 0.533401,0.0804 h 1.515534 q 0.436033,0 0.740833,0.14393 0.309034,0.1397 0.465667,0.40217 0.160867,0.26247 0.160867,0.62653 0,0.38947 -0.220134,0.70274 -0.220133,0.3175 -0.728133,0.49953 -0.503767,0.18627 -1.358901,0.18627 z m -0.0762,-3.31894 q -0.537633,0 -0.956734,-0.19473 -0.4191,-0.19473 -0.6604,-0.5461 -0.2413,-0.35137 -0.2413,-0.8255 0,-0.47413 0.237067,-0.8255 0.2413,-0.3556 0.656167,-0.55034 0.4191,-0.19896 0.9652,-0.19896 0.554567,0 0.977901,0.20743 0.427566,0.20743 0.651933,0.57573 0.110067,0.16934 0.160867,0.36831 0.05503,0.19473 0.05503,0.42333 0,0.47413 -0.237067,0.8255 -0.237066,0.35137 -0.656166,0.5461 -0.414867,0.19473 -0.952501,0.19473 z m 0,-0.49953 q 0.359834,0 0.639234,-0.13123 0.283633,-0.13124 0.4445,-0.37254 0.1651,-0.2413 0.1651,-0.56303 0,-0.32173 -0.1651,-0.56303 -0.160867,-0.24554 -0.4445,-0.37677 -0.2794,-0.13547 -0.639234,-0.13547 -0.3683,0 -0.651933,0.13547 -0.283634,0.13123 -0.448734,0.37677 -0.160867,0.2413 -0.160867,0.56303 0,0.32173 0.160867,0.56303 0.1651,0.2413 0.448734,0.37254 0.287866,0.13123 0.651933,0.13123 z m 1.845734,-1.0668 -0.211667,-0.4953 -0.186266,-0.3048 0.169333,-0.0677 q -0.0127,-0.0423 -0.02117,-0.0847 -0.0042,-0.0466 -0.0042,-0.0974 0,-0.1778 0.08467,-0.32173 0.08467,-0.14394 0.245533,-0.2286 0.160867,-0.0847 0.3937,-0.0847 0.05927,0 0.105834,0.004 0.0508,0.004 0.09737,0.0169 v 0.58843 q -0.08043,-0.0127 -0.148166,-0.0169 -0.06773,-0.008 -0.135467,-0.008 -0.1778,0 -0.287867,0.0508 -0.105833,0.0508 -0.1524,0.13123 -0.04657,0.0762 -0.04657,0.16934 0,0.0889 0.0254,0.19473 0.0254,0.1016 0.04657,0.23707 0.0254,0.13547 0.0254,0.3175 z m 7.095075,3.10303 q -0.698501,0 -1.282701,-0.2413 -0.5842,-0.2413 -1.011767,-0.68156 -0.427567,-0.44027 -0.664633,-1.0414 -0.232834,-0.60537 -0.232834,-1.32504 0,-0.71543 0.2286,-1.31233 0.2286,-0.5969 0.651934,-1.0287 0.427567,-0.4318 1.011767,-0.66887 0.5842,-0.2413 1.286934,-0.2413 0.690033,0 1.1938,0.2286 0.503767,0.2286 0.812801,0.65193 0.313266,0.42334 0.427566,1.01177 h 0.2032 l -0.173566,0.69003 q -0.194734,-0.92286 -0.846667,-1.43933 -0.651934,-0.5207 -1.600201,-0.5207 -0.753534,0 -1.3208,0.33443 -0.567267,0.3302 -0.884767,0.92287 -0.317501,0.59267 -0.317501,1.3716 0,0.58844 0.186267,1.0795 0.186267,0.49107 0.5207,0.84667 0.334434,0.3556 0.795867,0.55033 0.461434,0.1905 1.016001,0.1905 0.626533,0 1.134534,-0.24553 0.508,-0.24553 0.842433,-0.69427 0.338667,-0.45296 0.461434,-1.0541 l 0.651933,0.13547 q -0.1524,0.7493 -0.579967,1.3081 -0.427566,0.5588 -1.071033,0.86783 -0.639234,0.3048 -1.439334,0.3048 z m 2.451101,-3.95817 v -2.49766 h 0.630767 v 2.49766 z m 3.805763,3.94971 q -0.702733,0 -1.2319,-0.29634 -0.529167,-0.30056 -0.825501,-0.82126 -0.296333,-0.5207 -0.296333,-1.20227 0,-0.6858 0.296333,-1.21497 0.296334,-0.5334 0.825501,-0.83397 0.529167,-0.30056 1.2319,-0.30056 0.702734,0 1.231901,0.30056 0.529167,0.30057 0.8255,0.83397 0.296333,0.52917 0.296333,1.21497 0,0.68157 -0.296333,1.20227 -0.296333,0.5207 -0.8255,0.82126 -0.529167,0.29634 -1.231901,0.29634 z m 0,-0.56304 q 0.508,0 0.893234,-0.22013 0.389467,-0.22013 0.605367,-0.61383 0.220133,-0.39794 0.220133,-0.92287 0,-0.52917 -0.220133,-0.93133 -0.2159,-0.40217 -0.605367,-0.62654 -0.385234,-0.2286 -0.893234,-0.2286 -0.508,0 -0.897467,0.2286 -0.385233,0.22437 -0.605367,0.62654 -0.2159,0.40216 -0.2159,0.93133 0,0.52493 0.2159,0.92287 0.220134,0.3937 0.605367,0.61383 0.389467,0.22013 0.897467,0.22013 z m 9.465742,0.4826 v -0.52493 h 0.795867 v -2.36643 q 0,-0.55457 -0.245533,-0.86784 -0.245534,-0.31327 -0.766234,-0.31327 -0.4191,0 -0.745067,0.22014 -0.325967,0.22013 -0.512233,0.63077 -0.186267,0.41063 -0.186267,0.98636 l -0.148167,-0.90593 h 0.173567 q 0.105833,-0.7366 0.5461,-1.10067 0.4445,-0.36407 1.079501,-0.36407 0.715433,0 1.062567,0.42334 0.351367,0.42333 0.351367,1.1938 v 2.4638 h 0.8636 v 0.52493 z m -6.239936,0 v -0.52493 h 0.901701 v -3.45864 h -0.901701 v -0.52493 h 1.511301 v 3.98357 h 0.8001 v 0.52493 z m 3.175002,0 v -0.52493 h 0.795867 v -2.36643 q 0,-0.55457 -0.245534,-0.86784 -0.245533,-0.31327 -0.766233,-0.31327 -0.419101,0 -0.745067,0.22014 -0.325967,0.22013 -0.516467,0.63077 -0.186267,0.41063 -0.186267,0.98636 l -0.143933,-0.90593 h 0.173566 q 0.1016,-0.7366 0.546101,-1.10067 0.4445,-0.36407 1.0795,-0.36407 0.715434,0 1.062567,0.42334 0.351367,0.42333 0.351367,1.1938 v 2.4638 h 0.8636 v 0.52493 z m 12.175072,0 v -0.52493 h 0.795867 v -2.36643 q 0,-0.55457 -0.245533,-0.86784 -0.245534,-0.31327 -0.766234,-0.31327 -0.4191,0 -0.745067,0.22014 -0.325967,0.22013 -0.512233,0.63077 -0.186267,0.41063 -0.186267,0.98636 l -0.148167,-0.90593 h 0.173567 q 0.105833,-0.7366 0.5461,-1.10067 0.4445,-0.36407 1.079501,-0.36407 0.715433,0 1.062568,0.42334 0.35137,0.42333 0.35137,1.1938 v 2.4638 h 0.8636 v 0.52493 z m -6.239936,0 v -0.52493 h 0.901701 v -3.45864 h -0.901701 v -0.52493 h 1.511301 v 3.98357 h 0.8001 v 0.52493 z m 3.175002,0 v -0.52493 h 0.795867 v -2.36643 q 0,-0.55457 -0.245534,-0.86784 -0.245533,-0.31327 -0.766233,-0.31327 -0.419101,0 -0.745067,0.22014 -0.325967,0.22013 -0.516467,0.63077 -0.186267,0.41063 -0.186267,0.98636 l -0.143933,-0.90593 h 0.173566 q 0.1016,-0.7366 0.546101,-1.10067 0.4445,-0.36407 1.0795,-0.36407 0.715434,0 1.062567,0.42334 0.351367,0.42333 0.351367,1.1938 v 2.4638 h 0.8636 v 0.52493 z m 9.609216,-3.98357 h -0.87207 v -0.52493 h 1.48167 v 3.98357 h 0.88053 v 0.52493 h -1.49013 z m -2.51883,-0.52493 v 2.87444 q 0,0.55456 0.24553,0.8763 0.24977,0.3175 0.78317,0.3175 0.42756,0 0.762,-0.2159 0.33866,-0.22014 0.5334,-0.63077 0.19473,-0.41063 0.19473,-0.98637 l 0.14817,0.9017 h -0.1778 q -0.1143,0.72814 -0.56727,1.10067 -0.44873,0.3683 -1.1049,0.3683 -0.72813,0 -1.0795,-0.4318 -0.34713,-0.4318 -0.34713,-1.19803 v -2.45111 h -0.81704 v -0.52493 z m 6.18913,3.98357 h 0.80433 v 0.52493 h -2.34103 v -0.52493 h 0.9271 v -3.45864 h -0.9271 v -0.52493 h 1.5367 z m 2.59927,0 v -2.35797 q 0,-0.55456 -0.24977,-0.87207 -0.24977,-0.3175 -0.7874,-0.3175 -0.43603,0 -0.79163,0.2159 -0.3556,0.2159 -0.56304,0.62654 -0.20743,0.41063 -0.20743,0.99483 l -0.1397,-0.9017 h 0.16933 q 0.0804,-0.46143 0.30904,-0.78317 0.2286,-0.32596 0.5842,-0.4953 0.35983,-0.17356 0.8255,-0.17356 0.7366,0 1.09643,0.42756 0.36407,0.42334 0.36407,1.19804 v 2.4384 h 0.86783 v 0.52493 h -2.26907 v -0.52493 z m 3.66184,0 h 0.86783 v 0.52493 h -2.39184 v -0.52493 h 0.91441 v -3.45864 h -0.91441 v -0.52493 h 1.52401 z m -0.7239,-5.88434 h 0.77893 v 0.80857 h -0.77893 z m 3.44169,5.21547 q 0,0.3556 0.13547,0.53764 0.13547,0.1778 0.41487,0.1778 0.27516,0 0.41486,-0.18204 0.1397,-0.18626 0.1397,-0.5334 v -0.4191 h 0.55034 v 0.41487 q 0,0.4064 -0.12277,0.69427 -0.11853,0.28363 -0.36407,0.43603 -0.24553,0.14817 -0.63076,0.14817 -0.3937,0 -0.6477,-0.1524 -0.254,-0.15664 -0.37677,-0.44027 -0.12277,-0.28363 -0.12277,-0.68157 l 0.004,-2.78977 h -0.80434 v -0.52493 h 0.80434 v -1.143 h 0.6096 v 1.143 h 1.59173 l -0.004,0.52493 h -1.5875 z m 5.10337,-3.3147 h 2.09973 v 0.52493 h -0.56303 l -1.86267,4.58471 q -0.2286,0.56726 -0.70697,0.87206 -0.47413,0.3048 -1.1811,0.3048 h -0.4445 v -0.53763 h 0.4445 q 0.47413,0 0.8255,-0.19897 0.3556,-0.19473 0.51647,-0.57573 l 0.32173,-0.79163 -0.10583,0.52493 -1.72297,-4.18254 h -0.6223 v -0.52493 h 2.14207 v 0.52493 h -0.85514 l 1.51977,3.79731 -0.55456,-0.49107 h 0.5842 l -0.3175,0.28787 1.4097,-3.59411 h -0.9271 z"
         id="text3"
         style="font-size:8.46667px;line-height:1.25;font-family:'Hepta Slab';-inkscape-font-specification:'Hepta Slab, @wght=400';font-variation-settings:'wght' 400;text-align:center;text-anchor:middle;fill:#00205b;stroke-width:0.264583"
         aria-label="Faculty Learning Community" />
    </g>
  </g>
</svg>
